<?xml version="1.0" encoding="utf-8"?>
<svg version="1.1" id="Layer_1" xmlns="http://www.w3.org/2000/svg" xmlns:xlink="http://www.w3.org/1999/xlink" x="0px" y="0px"
	 viewBox="0 0 339.8 90" style="enable-background:new 0 0 339.8 90;" xml:space="preserve">
<style type="text/css">
	.st0{fill:#9E9E9E;}
	.st1{fill:#606060;}
	.st2{fill:none;stroke:#DE4326;stroke-width:3.7124;stroke-miterlimit:10;}
	.st3{fill:#DE4326;}
	.st4{fill-rule:evenodd;clip-rule:evenodd;fill:#231F20;}
	.st5{fill:#231F20;}
	.st6{fill:#FFFFFF;}
	.st7{fill:none;stroke:#231F20;stroke-width:1.2756;stroke-miterlimit:3.8637;}
</style>
<g>
	<path class="st4" d="M133.6,40.7h-5.1l-0.6,1.4c-0.2,0.5-0.3,0.9-0.3,1.2c0,0.4,0.2,0.7,0.5,0.9c0.2,0.1,0.7,0.2,1.4,0.3v0.4h-4.8
		v-0.4c0.5-0.1,0.9-0.3,1.3-0.6c0.3-0.4,0.7-1.1,1.2-2.2l5.1-11.4h0.2l5.2,11.8c0.5,1.1,0.9,1.8,1.2,2.1c0.2,0.2,0.6,0.3,1,0.4v0.4
		H133v-0.4h0.3c0.6,0,0.9-0.1,1.2-0.2c0.2-0.1,0.2-0.3,0.2-0.5c0-0.1,0-0.3-0.1-0.4c0-0.1-0.1-0.3-0.3-0.8L133.6,40.7L133.6,40.7z
		 M133.2,39.9l-2.1-4.9l-2.2,4.9H133.2L133.2,39.9z"/>
	<path class="st5" d="M148.7,34.9v7.7c0,0.8,0.1,1.2,0.2,1.4c0.1,0.2,0.4,0.3,0.9,0.3v0.4h-4v-1.3c-0.5,0.6-0.9,1-1.4,1.2
		c-0.5,0.3-1,0.4-1.6,0.4c-0.6,0-1.1-0.2-1.5-0.5c-0.4-0.3-0.7-0.7-0.9-1.2c-0.1-0.5-0.2-1.3-0.2-2.4V37c0-0.7-0.1-1.2-0.2-1.4
		c-0.1-0.2-0.4-0.3-0.9-0.4v-0.4h4v6.8c0,0.7,0,1.2,0.1,1.4c0.1,0.2,0.2,0.4,0.3,0.5c0.1,0.1,0.3,0.2,0.5,0.2c0.3,0,0.5-0.1,0.7-0.2
		c0.3-0.2,0.6-0.6,1-1.1V37c0-0.7-0.1-1.2-0.2-1.4c-0.1-0.2-0.4-0.3-0.9-0.4v-0.4H148.7L148.7,34.9z"/>
	<path class="st5" d="M156.7,34.6l0.2,3.4h-0.4c-0.4-1-0.9-1.7-1.3-2.1c-0.5-0.4-0.9-0.5-1.4-0.6c-0.3,0-0.5,0.1-0.7,0.3
		c-0.2,0.2-0.3,0.4-0.3,0.7c0,0.2,0.1,0.4,0.2,0.6c0.2,0.3,0.9,0.8,1.9,1.5c1,0.7,1.7,1.3,2,1.8c0.3,0.5,0.5,1,0.5,1.6
		c0,0.6-0.1,1.1-0.4,1.6c-0.3,0.5-0.7,0.9-1.2,1.2c-0.5,0.3-1.1,0.4-1.7,0.4c-0.5,0-1.1-0.1-1.9-0.4c-0.2-0.1-0.4-0.1-0.4-0.1
		c-0.2,0-0.4,0.2-0.6,0.5h-0.3l-0.2-3.6h0.4c0.3,0.9,0.8,1.6,1.3,2.1c0.6,0.5,1.1,0.7,1.6,0.7c0.3,0,0.6-0.1,0.8-0.3
		c0.2-0.2,0.3-0.5,0.3-0.8c0-0.3-0.1-0.6-0.3-0.9c-0.2-0.2-0.7-0.6-1.4-1.1c-1.1-0.7-1.8-1.3-2.1-1.7c-0.5-0.6-0.7-1.2-0.7-1.9
		c0-0.8,0.3-1.4,0.8-2.1c0.5-0.6,1.3-0.9,2.3-0.9c0.5,0,1.1,0.1,1.6,0.4c0.2,0.1,0.3,0.2,0.5,0.2c0.1,0,0.2,0,0.3-0.1
		c0.1-0.1,0.2-0.2,0.4-0.5H156.7L156.7,34.6z"/>
	<path class="st5" d="M162,31.3v3.6h2.3v1H162V42c0,0.6,0,0.9,0.1,1.1c0.1,0.2,0.2,0.3,0.3,0.4c0.1,0.1,0.3,0.1,0.4,0.1
		c0.5,0,0.9-0.3,1.3-1l0.3,0.2c-0.6,1.4-1.5,2-2.8,2c-0.6,0-1.2-0.2-1.6-0.5c-0.4-0.4-0.7-0.7-0.8-1.2c-0.1-0.2-0.1-0.9-0.1-1.9
		v-5.3h-1.3v-0.4c0.9-0.6,1.6-1.3,2.3-2c0.6-0.7,1.2-1.5,1.6-2.3H162L162,31.3z"/>
	<path class="st5" d="M169.2,34.9v2.2c0.7-1,1.2-1.7,1.7-2c0.5-0.3,1-0.5,1.4-0.5c0.4,0,0.7,0.1,0.9,0.4c0.2,0.2,0.4,0.6,0.4,1
		c0,0.5-0.1,0.8-0.3,1.1c-0.2,0.3-0.5,0.4-0.8,0.4c-0.4,0-0.7-0.1-1-0.4c-0.3-0.2-0.4-0.4-0.5-0.4c-0.1,0-0.2-0.1-0.2-0.1
		c-0.2,0-0.4,0.1-0.6,0.2c-0.3,0.2-0.5,0.6-0.7,1c-0.2,0.7-0.3,1.4-0.3,2.3v2.3l0,0.6c0,0.4,0,0.7,0.1,0.8c0.1,0.2,0.2,0.3,0.4,0.4
		c0.2,0.1,0.5,0.1,0.8,0.2v0.4h-5.3v-0.4c0.4,0,0.7-0.2,0.9-0.3c0.2-0.2,0.2-0.7,0.2-1.6V37c0-0.6,0-0.9-0.1-1.1
		c-0.1-0.2-0.2-0.3-0.3-0.4c-0.1-0.1-0.4-0.2-0.7-0.2v-0.4H169.2L169.2,34.9z"/>
	<path class="st4" d="M179.1,43.3c-1.2,1.1-2.3,1.6-3.2,1.6c-0.6,0-1-0.2-1.4-0.6c-0.4-0.4-0.6-0.8-0.6-1.4c0-0.8,0.3-1.4,1-2
		c0.6-0.6,2.1-1.4,4.2-2.4v-1c0-0.7,0-1.2-0.1-1.4c-0.1-0.2-0.2-0.4-0.5-0.5c-0.2-0.1-0.5-0.2-0.8-0.2c-0.5,0-0.8,0.1-1.1,0.3
		c-0.2,0.1-0.3,0.3-0.3,0.4c0,0.1,0.1,0.3,0.3,0.6c0.3,0.3,0.4,0.6,0.4,0.9c0,0.3-0.1,0.6-0.4,0.9c-0.3,0.2-0.6,0.4-1,0.4
		c-0.4,0-0.8-0.1-1.1-0.4c-0.3-0.3-0.4-0.6-0.4-0.9c0-0.5,0.2-1,0.6-1.4c0.4-0.5,1-0.8,1.7-1.1c0.7-0.2,1.5-0.4,2.2-0.4
		c0.9,0,1.7,0.2,2.2,0.6c0.6,0.4,0.9,0.8,1.1,1.3c0.1,0.3,0.1,1,0.1,2v3.8c0,0.5,0,0.7,0.1,0.9c0,0.1,0.1,0.2,0.2,0.3
		c0.1,0.1,0.2,0.1,0.2,0.1c0.2,0,0.4-0.1,0.6-0.4l0.3,0.3c-0.4,0.5-0.7,0.9-1.1,1.1c-0.4,0.2-0.8,0.3-1.3,0.3c-0.6,0-1-0.1-1.3-0.4
		C179.3,44.2,179.1,43.8,179.1,43.3L179.1,43.3z M179.1,42.5v-3.3c-0.9,0.5-1.5,1-1.9,1.6c-0.3,0.4-0.4,0.8-0.4,1.2
		c0,0.3,0.1,0.6,0.3,0.9c0.2,0.2,0.4,0.3,0.7,0.3C178.2,43.1,178.6,42.9,179.1,42.5L179.1,42.5z"/>
	<path class="st5" d="M187.7,30.4v12.3c0,0.7,0.1,1.1,0.2,1.3c0.2,0.2,0.5,0.3,1,0.3v0.4h-5.3v-0.4c0.4,0,0.8-0.1,1-0.4
		c0.1-0.2,0.2-0.6,0.2-1.3V32.5c0-0.7-0.1-1.1-0.2-1.3c-0.2-0.2-0.5-0.3-0.9-0.3v-0.4H187.7L187.7,30.4z"/>
	<path class="st4" d="M192.2,30.1c0.5,0,0.8,0.2,1.2,0.5c0.3,0.3,0.5,0.7,0.5,1.2c0,0.5-0.2,0.8-0.5,1.2c-0.3,0.3-0.7,0.5-1.2,0.5
		c-0.5,0-0.8-0.2-1.2-0.5c-0.3-0.3-0.5-0.7-0.5-1.2c0-0.5,0.2-0.8,0.5-1.2C191.3,30.2,191.7,30.1,192.2,30.1L192.2,30.1z
		 M193.7,34.9v7.8c0,0.7,0.1,1.1,0.2,1.3c0.2,0.2,0.5,0.3,1,0.3v0.4h-5.3v-0.4c0.4,0,0.8-0.1,1-0.4c0.1-0.2,0.2-0.6,0.2-1.3v-5.8
		c0-0.7-0.1-1.1-0.2-1.3c-0.2-0.2-0.5-0.3-0.9-0.3v-0.4H193.7L193.7,34.9z"/>
	<path class="st4" d="M200.6,43.3c-1.2,1.1-2.3,1.6-3.2,1.6c-0.6,0-1-0.2-1.4-0.6c-0.4-0.4-0.6-0.8-0.6-1.4c0-0.8,0.3-1.4,1-2
		c0.6-0.6,2.1-1.4,4.2-2.4v-1c0-0.7,0-1.2-0.1-1.4c-0.1-0.2-0.2-0.4-0.5-0.5c-0.2-0.1-0.5-0.2-0.8-0.2c-0.5,0-0.8,0.1-1.1,0.3
		c-0.2,0.1-0.3,0.3-0.3,0.4c0,0.1,0.1,0.3,0.3,0.6c0.3,0.3,0.4,0.6,0.4,0.9c0,0.3-0.1,0.6-0.4,0.9c-0.3,0.2-0.6,0.4-1,0.4
		c-0.4,0-0.8-0.1-1.1-0.4c-0.3-0.3-0.4-0.6-0.4-0.9c0-0.5,0.2-1,0.6-1.4c0.4-0.5,1-0.8,1.7-1.1c0.7-0.2,1.5-0.4,2.2-0.4
		c0.9,0,1.7,0.2,2.2,0.6c0.6,0.4,0.9,0.8,1.1,1.3c0.1,0.3,0.1,1,0.1,2v3.8c0,0.5,0,0.7,0.1,0.9c0,0.1,0.1,0.2,0.2,0.3
		c0.1,0.1,0.2,0.1,0.2,0.1c0.2,0,0.4-0.1,0.6-0.4l0.3,0.3c-0.4,0.5-0.7,0.9-1.1,1.1c-0.4,0.2-0.8,0.3-1.3,0.3c-0.6,0-1-0.1-1.3-0.4
		C200.9,44.2,200.7,43.8,200.6,43.3L200.6,43.3z M200.6,42.5v-3.3c-0.9,0.5-1.5,1-1.9,1.6c-0.3,0.4-0.4,0.8-0.4,1.2
		c0,0.3,0.1,0.6,0.3,0.9c0.2,0.2,0.4,0.3,0.7,0.3C199.8,43.1,200.2,42.9,200.6,42.5L200.6,42.5z"/>
	<path class="st5" d="M209.2,34.9v1.3c0.5-0.6,1-0.9,1.5-1.2c0.5-0.3,1-0.4,1.5-0.4c0.6,0,1.2,0.2,1.6,0.5c0.4,0.4,0.7,0.8,0.8,1.3
		c0.1,0.4,0.2,1.2,0.2,2.3v3.9c0,0.8,0.1,1.2,0.2,1.4c0.1,0.2,0.4,0.3,0.9,0.3v0.4h-5v-0.4c0.4,0,0.6-0.2,0.8-0.5
		c0.1-0.2,0.2-0.6,0.2-1.3v-4.4c0-0.8,0-1.3-0.1-1.5c-0.1-0.2-0.2-0.4-0.3-0.5c-0.1-0.1-0.3-0.2-0.5-0.2c-0.6,0-1.2,0.4-1.7,1.3v5.3
		c0,0.7,0.1,1.2,0.2,1.4c0.1,0.2,0.4,0.3,0.8,0.4v0.4h-5v-0.4c0.4,0,0.7-0.2,0.9-0.4c0.1-0.2,0.2-0.6,0.2-1.4V37
		c0-0.7-0.1-1.2-0.2-1.4c-0.1-0.2-0.4-0.3-0.9-0.4v-0.4H209.2L209.2,34.9z"/>
	<path class="st5" d="M235.3,30.1v5.1h-0.4c-0.5-1.4-1.2-2.4-2.1-3.2c-0.9-0.7-2-1.1-3.1-1.1c-1.1,0-2,0.3-2.7,0.9
		c-0.7,0.6-1.2,1.4-1.5,2.5c-0.3,1.1-0.4,2.2-0.4,3.3c0,1.4,0.2,2.6,0.5,3.6s0.8,1.8,1.6,2.3c0.7,0.5,1.6,0.7,2.6,0.7
		c0.3,0,0.7,0,1.1-0.1c0.4-0.1,0.7-0.2,1.1-0.3v-3c0-0.6,0-0.9-0.1-1.1c-0.1-0.2-0.2-0.3-0.5-0.5c-0.2-0.1-0.5-0.2-0.9-0.2H230v-0.4
		h7v0.4c-0.5,0-0.9,0.1-1.1,0.2c-0.2,0.1-0.4,0.3-0.5,0.5c-0.1,0.1-0.1,0.5-0.1,1v3c-0.9,0.4-1.9,0.7-2.9,0.9c-1,0.2-2,0.3-3.1,0.3
		c-1.4,0-2.5-0.2-3.4-0.6c-0.9-0.4-1.7-0.9-2.4-1.5c-0.7-0.6-1.2-1.3-1.6-2c-0.5-1-0.7-2.1-0.7-3.3c0-2.2,0.8-4,2.3-5.5
		c1.5-1.5,3.4-2.2,5.7-2.2c0.7,0,1.4,0.1,1.9,0.2c0.3,0.1,0.8,0.2,1.5,0.5c0.7,0.3,1.1,0.4,1.2,0.4c0.2,0,0.4-0.1,0.6-0.2
		c0.2-0.1,0.3-0.4,0.5-0.8H235.3L235.3,30.1z"/>
	<path class="st4" d="M242.2,34.6c0.9,0,1.7,0.2,2.4,0.7c0.7,0.4,1.3,1.1,1.7,1.9c0.4,0.8,0.6,1.7,0.6,2.7c0,1.4-0.4,2.6-1.1,3.5
		c-0.9,1.1-2,1.7-3.6,1.7c-1.5,0-2.6-0.5-3.4-1.6c-0.8-1-1.2-2.3-1.2-3.6c0-1.4,0.4-2.7,1.2-3.7C239.6,35.1,240.8,34.6,242.2,34.6
		L242.2,34.6z M242.2,35.3c-0.4,0-0.7,0.1-0.9,0.4c-0.3,0.3-0.4,0.8-0.5,1.6c-0.1,0.8-0.1,1.9-0.1,3.3c0,0.8,0,1.5,0.1,2.1
		c0.1,0.5,0.2,0.9,0.5,1.1c0.3,0.3,0.5,0.4,0.9,0.4c0.3,0,0.6-0.1,0.8-0.3c0.3-0.2,0.5-0.6,0.6-1c0.1-0.7,0.2-2,0.2-4.1
		c0-1.2-0.1-2-0.2-2.5c-0.1-0.5-0.3-0.8-0.6-1C242.8,35.4,242.5,35.3,242.2,35.3L242.2,35.3z"/>
	<path class="st5" d="M251.5,45.1l-3.3-7.7c-0.4-0.9-0.7-1.5-0.9-1.8c-0.2-0.2-0.4-0.3-0.7-0.4v-0.4h5.3v0.4c-0.3,0-0.6,0.1-0.7,0.2
		c-0.2,0.2-0.3,0.3-0.3,0.6c0,0.3,0.2,0.8,0.5,1.5l1.6,3.7l1.3-3.2c0.4-0.9,0.6-1.6,0.6-1.9c0-0.2-0.1-0.4-0.2-0.5
		c-0.2-0.1-0.4-0.2-0.8-0.2v-0.4h3.2v0.4c-0.3,0-0.6,0.2-0.8,0.3c-0.2,0.2-0.5,0.8-0.9,1.7l-3.3,7.8H251.5L251.5,45.1z"/>
	<path class="st4" d="M264.8,39.5h-5.4c0.1,1.3,0.4,2.3,1,3.1c0.5,0.6,1.1,0.9,1.8,0.9c0.4,0,0.8-0.1,1.2-0.3
		c0.3-0.2,0.7-0.7,1.1-1.3l0.4,0.2c-0.5,1.1-1.1,1.9-1.8,2.3c-0.6,0.5-1.4,0.7-2.3,0.7c-1.5,0-2.6-0.6-3.3-1.7
		c-0.6-0.9-0.9-2-0.9-3.4c0-1.7,0.4-3,1.3-3.9c0.9-1,1.9-1.5,3.1-1.5c1,0,1.9,0.4,2.6,1.2C264.3,36.6,264.7,37.9,264.8,39.5
		L264.8,39.5z M262.2,38.8c0-1.1-0.1-1.9-0.2-2.3c-0.1-0.4-0.3-0.7-0.6-1c-0.1-0.1-0.3-0.2-0.6-0.2c-0.4,0-0.7,0.2-0.9,0.5
		c-0.4,0.6-0.6,1.5-0.6,2.6v0.4H262.2L262.2,38.8z"/>
	<path class="st5" d="M269.4,34.9v2.2c0.7-1,1.2-1.7,1.7-2c0.5-0.3,1-0.5,1.4-0.5c0.4,0,0.7,0.1,0.9,0.4c0.2,0.2,0.4,0.6,0.4,1
		c0,0.5-0.1,0.8-0.3,1.1c-0.2,0.3-0.5,0.4-0.8,0.4c-0.4,0-0.7-0.1-1-0.4c-0.3-0.2-0.4-0.4-0.5-0.4c-0.1,0-0.2-0.1-0.2-0.1
		c-0.2,0-0.4,0.1-0.6,0.2c-0.3,0.2-0.5,0.6-0.7,1c-0.2,0.7-0.3,1.4-0.3,2.3v2.3l0,0.6c0,0.4,0,0.7,0.1,0.8c0.1,0.2,0.2,0.3,0.4,0.4
		c0.2,0.1,0.5,0.1,0.8,0.2v0.4h-5.3v-0.4c0.4,0,0.7-0.2,0.9-0.3c0.2-0.2,0.2-0.7,0.2-1.6V37c0-0.6,0-0.9-0.1-1.1
		c-0.1-0.2-0.2-0.3-0.3-0.4c-0.1-0.1-0.4-0.2-0.7-0.2v-0.4H269.4L269.4,34.9z"/>
	<path class="st5" d="M278.6,34.9v1.3c0.5-0.6,1-0.9,1.5-1.2c0.5-0.3,1-0.4,1.5-0.4c0.6,0,1.2,0.2,1.6,0.5c0.4,0.4,0.7,0.8,0.8,1.3
		c0.1,0.4,0.2,1.2,0.2,2.3v3.9c0,0.8,0.1,1.2,0.2,1.4c0.1,0.2,0.4,0.3,0.9,0.3v0.4h-5v-0.4c0.4,0,0.6-0.2,0.8-0.5
		c0.1-0.2,0.2-0.6,0.2-1.3v-4.4c0-0.8,0-1.3-0.1-1.5c-0.1-0.2-0.2-0.4-0.3-0.5c-0.1-0.1-0.3-0.2-0.5-0.2c-0.6,0-1.2,0.4-1.7,1.3v5.3
		c0,0.7,0.1,1.2,0.2,1.4c0.1,0.2,0.4,0.3,0.8,0.4v0.4h-5v-0.4c0.4,0,0.7-0.2,0.9-0.4c0.1-0.2,0.2-0.6,0.2-1.4V37
		c0-0.7-0.1-1.2-0.2-1.4c-0.1-0.2-0.4-0.3-0.9-0.4v-0.4H278.6L278.6,34.9z"/>
	<path class="st5" d="M290,34.9v1.3c0.5-0.6,1-1,1.5-1.2c0.5-0.2,1-0.4,1.5-0.4c0.6,0,1.2,0.1,1.6,0.4c0.4,0.3,0.8,0.7,1,1.4
		c0.6-0.6,1.1-1.1,1.6-1.4c0.5-0.3,1.1-0.4,1.6-0.4c0.7,0,1.2,0.2,1.6,0.5c0.4,0.3,0.7,0.7,0.8,1.2c0.2,0.5,0.2,1.2,0.2,2.3v4.1
		c0,0.8,0.1,1.2,0.2,1.4c0.1,0.2,0.4,0.3,0.9,0.4v0.4h-5.1v-0.4c0.4,0,0.7-0.2,0.9-0.5c0.1-0.2,0.2-0.6,0.2-1.3v-4.3
		c0-0.9,0-1.4-0.1-1.7c-0.1-0.2-0.2-0.4-0.3-0.5c-0.1-0.1-0.3-0.2-0.5-0.2c-0.3,0-0.6,0.1-0.9,0.3c-0.3,0.2-0.6,0.6-0.9,1v5.3
		c0,0.7,0.1,1.2,0.2,1.3c0.2,0.3,0.5,0.4,0.9,0.4v0.4h-5.1v-0.4c0.3,0,0.5-0.1,0.6-0.2c0.2-0.1,0.3-0.3,0.3-0.4
		c0.1-0.2,0.1-0.6,0.1-1.1v-4.3c0-0.9,0-1.5-0.1-1.7c-0.1-0.2-0.2-0.4-0.4-0.5c-0.2-0.1-0.3-0.2-0.5-0.2c-0.3,0-0.5,0.1-0.8,0.2
		c-0.3,0.2-0.7,0.6-1.1,1.1v5.3c0,0.7,0.1,1.2,0.2,1.4c0.1,0.2,0.4,0.3,0.9,0.4v0.4H286v-0.4c0.4,0,0.7-0.2,0.9-0.4
		c0.1-0.2,0.2-0.6,0.2-1.4V37c0-0.7-0.1-1.2-0.2-1.4c-0.1-0.2-0.4-0.3-0.9-0.4v-0.4H290L290,34.9z"/>
	<path class="st4" d="M311.5,39.5h-5.4c0.1,1.3,0.4,2.3,1,3.1c0.5,0.6,1.1,0.9,1.8,0.9c0.4,0,0.8-0.1,1.2-0.3
		c0.3-0.2,0.7-0.7,1.1-1.3l0.4,0.2c-0.5,1.1-1.1,1.9-1.8,2.3c-0.6,0.5-1.4,0.7-2.3,0.7c-1.5,0-2.6-0.6-3.3-1.7
		c-0.6-0.9-0.9-2-0.9-3.4c0-1.7,0.4-3,1.3-3.9c0.9-1,1.9-1.5,3.1-1.5c1,0,1.9,0.4,2.6,1.2C311,36.6,311.4,37.9,311.5,39.5
		L311.5,39.5z M308.9,38.8c0-1.1-0.1-1.9-0.2-2.3c-0.1-0.4-0.3-0.7-0.6-1c-0.1-0.1-0.3-0.2-0.6-0.2c-0.4,0-0.7,0.2-0.9,0.5
		c-0.4,0.6-0.6,1.5-0.6,2.6v0.4H308.9L308.9,38.8z"/>
	<path class="st5" d="M315.9,34.9v1.3c0.5-0.6,1-0.9,1.5-1.2c0.5-0.3,1-0.4,1.5-0.4c0.6,0,1.2,0.2,1.6,0.5c0.4,0.4,0.7,0.8,0.8,1.3
		c0.1,0.4,0.2,1.2,0.2,2.3v3.9c0,0.8,0.1,1.2,0.2,1.4c0.1,0.2,0.4,0.3,0.9,0.3v0.4h-5v-0.4c0.4,0,0.6-0.2,0.8-0.5
		c0.1-0.2,0.2-0.6,0.2-1.3v-4.4c0-0.8,0-1.3-0.1-1.5c-0.1-0.2-0.2-0.4-0.3-0.5c-0.1-0.1-0.3-0.2-0.5-0.2c-0.6,0-1.2,0.4-1.7,1.3v5.3
		c0,0.7,0.1,1.2,0.2,1.4c0.1,0.2,0.4,0.3,0.8,0.4v0.4h-5v-0.4c0.4,0,0.7-0.2,0.9-0.4c0.1-0.2,0.2-0.6,0.2-1.4V37
		c0-0.7-0.1-1.2-0.2-1.4c-0.1-0.2-0.4-0.3-0.9-0.4v-0.4H315.9L315.9,34.9z"/>
	<path class="st5" d="M326.8,31.3v3.6h2.3v1h-2.3V42c0,0.6,0,0.9,0.1,1.1c0.1,0.2,0.2,0.3,0.3,0.4c0.1,0.1,0.3,0.1,0.4,0.1
		c0.5,0,0.9-0.3,1.3-1l0.3,0.2c-0.6,1.4-1.5,2-2.8,2c-0.6,0-1.2-0.2-1.6-0.5c-0.4-0.4-0.7-0.7-0.8-1.2c-0.1-0.2-0.1-0.9-0.1-1.9
		v-5.3h-1.3v-0.4c0.9-0.6,1.6-1.3,2.3-2c0.6-0.7,1.2-1.5,1.6-2.3H326.8L326.8,31.3z"/>
	<path class="st5" d="M44.8,68.4c-0.1,0.1-0.2,0.2-0.3,0.3"/>
	<path class="st5" d="M47.3,49c0.3,0,0.5-0.2,0.5-0.5c0-0.3-0.2-0.5-0.5-0.5c-0.3,0-0.5,0.2-0.5,0.5C46.8,48.8,47,49,47.3,49
		L47.3,49z"/>
	<path class="st5" d="M71.3,27.1L71.3,27.1l-18.7,0v0h0l0,15.1c0,1.5,0.6,2.7,1.5,3.1l7.2,4.3c0.2,0.2,0.4,0.3,0.7,0.3
		c0.2,0,0.4-0.1,0.6-0.2l7.3-4.4c0.9-0.4,1.5-1.7,1.5-3.1L71.3,27.1L71.3,27.1L71.3,27.1z M58.8,31.5h-1.6v-3.9h1.6V31.5L58.8,31.5z
		 M57.6,32.8l0.2-0.2l-0.1-0.3l0.3,0l0.2-0.3l0.2,0.3l0.3,0l-0.1,0.3l0.2,0.2l-0.3,0.1v0.3L58.2,33l-0.3,0.2v-0.3L57.6,32.8
		L57.6,32.8z M53.1,37.6V34h2v3.7H53.1L53.1,37.6z M53.5,32.3l0.3,0l0.2-0.3l0.2,0.3l0.3,0l-0.1,0.3l0.2,0.2l-0.3,0.1v0.3L53.9,33
		l-0.3,0.2v-0.3l-0.3-0.1l0.2-0.2L53.5,32.3L53.5,32.3z M55.7,36.1l0.3,0l0.2-0.3l0.2,0.3l0.3,0l-0.1,0.3l0.2,0.2l-0.3,0.1v0.3
		l-0.3-0.2l-0.3,0.2v-0.3l-0.3-0.1l0.2-0.2L55.7,36.1L55.7,36.1z M57,33.1c0-0.1-0.1-0.1-0.2-0.1c-0.2,0-0.2,0.3-0.4,0.3
		c-0.1,0-0.2,0-0.2-0.1c0-0.1,0.2-0.2,0.3-0.3c-1.2,0-1.2,0.6-1.4,0.6c-0.3,0,0.3-0.6,0.4-0.8c-0.2,0-0.4-0.3-0.7-0.5
		c0.1-0.2,0.2-0.1,0.4,0c0-0.1,0.1-0.3,0.4-0.3c0.5,0,0.4,0.5,0.5,0.5c0.1,0,0-0.5,0.4-0.5c0.5,0,1.2,1.4,0.6,1.4
		C56.8,33.3,57,33.1,57,33.1L57,33.1z M55.6,29.1l0.2-0.2l-0.1-0.3l0.3,0l0.2-0.3l0.2,0.3l0.3,0l-0.1,0.3l0.2,0.2l-0.3,0.1v0.3
		l-0.3-0.2l-0.3,0.2v-0.3L55.6,29.1L55.6,29.1z M55.1,27.6v3.9h-2v-3.9H55.1L55.1,27.6z M58.8,47.5l-4.5-2.7
		c-0.7-0.5-1.1-1.4-1.2-2.5v-4.2h5.7V47.5L58.8,47.5z M57.2,37.6V34h1.6v3.7H57.2L57.2,37.6z M64.6,47.8l-2.1,1.2h0
		c-0.2,0.1-0.3,0.2-0.5,0.2c-0.2,0-0.4-0.1-0.6-0.2l-2.1-1.2v-9.7h5.2V47.8L64.6,47.8z M64.6,37.6h-5.2v-10h5.2V37.6L64.6,37.6z
		 M70.8,42.4c-0.1,1.1-0.5,2-1.2,2.5l-4.5,2.7v-9.4h5.7V42.4L70.8,42.4z M70.8,37.6h-5.7v-10h5.7V37.6L70.8,37.6z"/>
	<path class="st5" d="M58.5,41.6c0-0.1-0.7,0.2-0.5,0.2c0-0.2,0.4-0.6,0.6-0.8c0-0.2-0.3,0-0.7,0.1c1.1-1.5,0.4-0.9-0.2-0.8
		c0.9-1,0.7-1,0-0.7c0.5-0.4,0.7-1,0.6-1.1c-0.5,0.7-1,0.6-1,1.2c0,0.4-0.2,1.1-0.4,1.3c-0.3,0.3-0.1-1.1-0.8-1.1
		c-0.2,0-0.8,0-0.9,0.3c0.1,0,0.4,0.4,0.4,0.5c0,0.2,0.1,0.6-0.1,0.6c-0.2,0-0.5-0.5-0.5-0.8c0-0.3,0-0.2,0-0.6c0-0.6-1-1.5-1.4-1.5
		c0,0.4,0.5,0.5,0.5,1.1c-0.2,0-0.6-0.4-0.6-0.2c0,0.3,0.3,0.3,0.3,0.6c0,0.2-0.4-0.1-0.4,0.2c0,0.2,0.2,0.2,0.3,0.4
		c-0.2,0-0.3,0-0.3,0.1c0,0.1,0,0.2,0.2,0.2c-0.1,0.1-0.1,0.2-0.1,0.5c0,1.2,0.7,1.7,1.3,1.7c0.4,0,0.3-0.3,0.4-0.4
		c0,0.2,0.2-0.1,0.2,0.3c0,0.4-0.4,0.2-0.4,0.5c0,0.4,0.6,0,0.6,0.5c0,0.6-0.1,0.6-0.1,0.8c0,0.1,0.6-0.2,0.6-0.3
		c0.2,0.1,0.1,0.5,0.4,0.5c0.2,0,0.2-0.5,0.4-0.5c-0.1,0,0.6,0.4,0.6,0.2c0-0.6-0.2-0.3-0.2-0.7c0-0.4,0.8-0.3,0.6-0.5
		c-0.1-0.1-0.2-0.1-0.3-0.3c0,0-0.6-0.9,0.1-0.4C58.5,43.4,58.6,41.7,58.5,41.6L58.5,41.6z"/>
	<path class="st5" d="M78.4,45.5c0.3,0,0.6-0.2,0.6-0.5s-0.3-0.5-0.6-0.5s-0.6,0.2-0.6,0.5S78.1,45.5,78.4,45.5L78.4,45.5z"/>
	<path class="st5" d="M75.9,47c0.3,0,0.6-0.2,0.6-0.5c0-0.3-0.3-0.5-0.6-0.5s-0.6,0.2-0.6,0.5C75.3,46.8,75.6,47,75.9,47L75.9,47z"
		/>
	<path class="st5" d="M46.4,50.4c0.3,0,0.6-0.2,0.6-0.5c0-0.3-0.3-0.5-0.6-0.5c-0.3,0-0.6,0.2-0.6,0.5
		C45.8,50.2,46.1,50.4,46.4,50.4L46.4,50.4z"/>
	<path class="st5" d="M48.3,50.6c0.3,0,0.6-0.2,0.6-0.5c0-0.3-0.3-0.5-0.6-0.5c-0.3,0-0.6,0.2-0.6,0.5C47.7,50.3,48,50.6,48.3,50.6
		L48.3,50.6z"/>
	<path class="st5" d="M101.5,24.8c0.9,1.1,1.1,2.8,0.5,4.1c-0.4,0-0.3-0.5-0.4-0.8c-0.7-1.2-1.2-2.8-0.6-4.1
		C101.4,24.1,101.2,24.6,101.5,24.8L101.5,24.8z"/>
	<path class="st5" d="M23.5,26.3c-0.2,0.8-0.2,1.9,0,2.6c-0.2,0.2-0.1-0.2-0.3-0.1c-1.3-0.9-0.7-2.7-1-4c0.1-0.1,0.2-0.1,0.3-0.1
		C23.1,25.1,23.4,25.7,23.5,26.3L23.5,26.3z"/>
	<path class="st5" d="M104.3,26.4c0.2,0.4-0.2,0.7-0.4,0.9c-0.3,0.1-0.6-0.1-0.8-0.4c-0.1-0.4,0.1-0.7,0.4-0.9
		C103.8,26.1,104.1,26.1,104.3,26.4L104.3,26.4z"/>
	<path class="st5" d="M21.5,27.9c-0.1,0.3-0.2,0.6-0.4,0.7c-0.2,0-0.5,0-0.6-0.2c-0.2-0.2-0.2-0.5-0.1-0.7c0.1-0.2,0.4-0.3,0.6-0.3
		C21.2,27.5,21.4,27.6,21.5,27.9L21.5,27.9z"/>
	<path class="st5" d="M105.5,28.4c0.1,0.2,0.1,0.3,0,0.5c-0.2,0.3-0.6,0.4-0.9,0.3c-0.2-0.1-0.3-0.4-0.4-0.6
		c0.1-0.3,0.3-0.5,0.6-0.6C105.2,28.1,105.3,28.2,105.5,28.4L105.5,28.4z"/>
	<path class="st5" d="M103.7,28.4c0.3,0.1,0.1,0.5,0,0.7c-0.2,0.2-0.4,0.4-0.7,0.3c-0.2-0.2-0.4-0.2-0.4-0.4c0-0.3,0.1-0.7,0.5-0.8
		C103.3,28.2,103.5,28.3,103.7,28.4L103.7,28.4z"/>
	<path class="st5" d="M101.3,28.9c0,0.4,0,0.8-0.4,0.9c-0.4,0.1-0.7-0.2-0.7-0.5c0-0.3,0.2-0.7,0.5-0.8
		C100.9,28.6,101.1,28.7,101.3,28.9L101.3,28.9z"/>
	<path class="st5" d="M25.1,29.1c0.1,0.3-0.2,0.5-0.4,0.7c-0.2,0.1-0.5-0.1-0.7-0.4c-0.2-0.2,0.1-0.4,0.1-0.6
		C24.5,28.5,25,28.7,25.1,29.1L25.1,29.1z"/>
	<path class="st5" d="M23.1,29.2c0,0.3-0.1,0.5-0.4,0.6c-0.3,0.1-0.5-0.1-0.7-0.3c-0.2-0.3,0-0.6,0.3-0.8C22.8,28.6,23,29,23.1,29.2
		L23.1,29.2z"/>
	<path class="st5" d="M93.4,29.3c0.3,0.7,0.6,1.5,0.7,2.4c-0.1,0.6,0.1,1.4-0.4,1.9c-0.5-0.2-0.5-0.7-0.8-1
		c-0.6-1.1-0.1-2.5,0.1-3.6C93.3,28.8,93.3,29.2,93.4,29.3L93.4,29.3z"/>
	<path class="st5" d="M21.6,29.7c0.1,0.4-0.2,0.6-0.4,0.8c-0.4,0.1-0.7-0.2-0.8-0.5c0-0.3,0.2-0.7,0.4-0.8
		C21.1,29.3,21.4,29.4,21.6,29.7L21.6,29.7z"/>
	<path class="st5" d="M98.6,30.7c0.4,1,0.5,2.1,0.2,3.1L98.5,34c-0.5-0.9-1.1-1.7-1.3-2.7c0-0.7,0.1-1.3,0.4-1.9
		c0.2-0.2,0.4,0,0.5,0.2C98.1,30.1,98.3,30.5,98.6,30.7L98.6,30.7z"/>
	<path class="st5" d="M102.7,30.1c0,0.3-0.2,0.7-0.5,0.8c-0.3,0.1-0.7,0-0.7-0.4c-0.1-0.3,0.1-0.6,0.4-0.8
		C102.2,29.5,102.5,29.8,102.7,30.1L102.7,30.1z"/>
	<path class="st5" d="M23.2,31.1c0,0.3-0.2,0.6-0.5,0.6c-0.3,0.2-0.5-0.1-0.7-0.2c-0.1-0.3-0.2-0.5,0-0.8c0.1-0.2,0.3-0.2,0.5-0.3
		C22.8,30.6,23.1,30.8,23.2,31.1L23.2,31.1z"/>
	<path class="st5" d="M24.6,30.9c0.1,0.3-0.2,0.5-0.4,0.7c-0.4,0.1-0.6-0.2-0.7-0.4c-0.1-0.3,0.1-0.5,0.4-0.7
		C24.2,30.4,24.4,30.6,24.6,30.9L24.6,30.9z"/>
	<path class="st5" d="M103.6,30.8c0,0.4-0.7,0.9-0.7,1.3c-0.4,0.9-1.1,1.5-2,1.8c-0.2,0.2-0.5,0.4-0.7,0.4c-0.1-0.7,0.5-1.2,0.9-1.8
		C101.6,31.7,102.6,31.1,103.6,30.8L103.6,30.8z"/>
	<path class="st5" d="M22.5,32.2c0.5,0.6,0.7,1,1.3,1.5c0,0.1-0.1,0.3-0.2,0.3c-1.6-0.1-2.7-1.7-3.5-2.9c0.1-0.4,0.5-0.1,0.7-0.1
		C21.5,31.5,22.1,31.7,22.5,32.2L22.5,32.2z"/>
	<path class="st5" d="M104,32.7c-0.1,1.4-0.7,2.9-2,3.5c-0.4,0.1-0.7,0.5-1.1,0.3c0.7-1.4,1.7-2.6,2.9-3.8H104L104,32.7z"/>
	<path class="st5" d="M97.8,33.6c0.1,0.5-0.2,0.8-0.6,1c-0.4,0-0.6-0.3-0.7-0.5c0-0.3,0.2-0.6,0.5-0.7c0.1-0.1,0.3-0.1,0.4-0.1
		C97.5,33.3,97.6,33.5,97.8,33.6L97.8,33.6z"/>
	<path class="st5" d="M20.7,33.9c0.6,0.4,1.2,1,1.8,1.5c-0.4,0.3-0.9,0-1.4,0c-1.1-0.4-1.9-1.3-3-1.7c0-0.4,0.5-0.2,0.7-0.3
		C19.5,33.4,20,33.8,20.7,33.9L20.7,33.9z"/>
	<path class="st5" d="M55.6,24.2c-1.8-0.7-3,1.2-4.9,1c-0.2,0.1-0.2,0.4-0.3,0.5c-0.1,0.1-0.3,0-0.4,0c-0.1-0.8-0.4-1.5-0.5-2.3
		c-0.2-0.3-0.1-0.8-0.3-1.1c-1-2.9,2.5-0.7,3.3-2.4c0.6-1.4-1.2-1.6-1.8-2.6v-0.4c-0.5-0.5-1.1-0.7-1.4-1.4c0.2-0.8,0.3-1.7,0.1-2.5
		c0-0.2-0.2-0.5-0.5-0.4c-0.6,0.9-1.1,1.5-1.7,2.4c-0.6-0.5-1.2-1-1.9-1.4C45,13.5,44.6,13,44,13.2c-0.1,0.2,0,0.4,0.1,0.5
		c0,1.3,0.7,2.3,1.6,3.2l0.1,0.5c-0.6,1.3-0.4,2.9-0.6,4.3c-1.5,3.7-3.8,7.3-7.1,9.9c-1.9,2.1-4.1,4.1-4.4,7c-0.1,0.5,0.1,1-0.3,1.3
		c-1.1-0.4-2.1-0.9-3-1.6c-1.5-1.1-3.6-0.9-4.6-2.8c-0.4-0.8,0.1-1.5,0.5-2.1c1.1-1,0.9-2.9,0.4-4.2c-0.1,0-0.2,0.1-0.3,0.2
		c-0.1,1.9-1.6,3.3-1,5.4c0.1,0.6,0.5,1,0.6,1.6c-0.2-0.1-0.6-0.1-0.7-0.2c-0.7-0.1-1.4-0.4-2.2-0.3c-1.5,0.7-3.5-0.2-4.8,1.2
		c-0.2,0-0.5,0.1-0.4,0.4c0.7,0,1.4,0.2,2.1,0.2c1.1,0.2,1.9-0.8,2.7-1.2h0.2c0.3-0.3,0.9-0.1,1.3-0.2c2.1,0.2,3.6,1.2,5.3,2.2v0.1
		c-0.7,0.3-1.4,0.5-2.1,0.9c-0.7,0.6-1.6,1.3-1.8,2.2c-0.5,0.8,0.2,1.5,0.5,2.2c0,0.3,0.1,0.7,0.4,0.9c1-1.1,0.1-2.5,0.2-3.8
		c0.3-1,1.2-1.4,2.1-1.7c1.9-0.8,3.2,0.7,4.7,1.6c0,1.5,0.2,3-0.2,4.4c-0.5,0.2-1,0.3-1.5,0.2c-2.6,0.2-4.6,1.6-6.9,2.4
		c-1,0.4-2.3,0.3-3.3,0.7c0.8,0.2,1.7-0.1,2.5-0.1c3.2-0.5,5.6-2.9,9.1-2.5l0.1,0.1c-0.4,0.8-0.9,1.5-1.5,2.1
		c-0.1-0.4-0.1-0.7-0.5-0.9c-0.3-0.1-0.6,0-0.7,0.3c-0.1,0.2-0.1,0.4,0,0.5c0.2,0.3,0.4,0.4,0.7,0.5c-0.1,0.3-0.4,0.4-0.6,0.7
		c-0.9,1.5-2.8,0.9-3.8,2c-0.2,0.2-0.7,0.4-0.5,0.7c1.2,0.1,2.4-0.2,3.4-0.9c1.2-1.3,2.5-2.6,3.7-3.9c0.2,1-0.1,2.1-0.7,3
		c-0.3-0.2-0.5-0.4-0.9-0.5c-0.3,0.1-0.6,0.4-0.6,0.7c0.1,0.2,0.3,0.5,0.5,0.7c-1.1,0.8-2.5,0.9-3.8,1.2c-2.4,0.3-4.7,0.5-7.1,0.5
		c-1.1-0.1-2.4,0.3-3.5,0c-1.2,0.2-2.6-0.2-3.6,0.5c-0.1,0.2,0,0.3,0,0.5c1.5,1,3.6,0.2,5.2,0.5h12.8c0.9,0,1.9-0.1,2.6-0.5
		c1.7-1,2.6-2.7,3.4-4.3c0.3-0.6,0.6-1.3,0.7-2c0.3-1.1,1.3-1.9,2.4-2c0.2,1.7-0.2,3.4-0.6,5c-0.2,1-0.9,2.1-0.5,3.2
		c0.1,0.5,0.7,0.5,1.1,0.6c3.9-0.1,7.9-0.2,12,0.1c0.7,0.1,1.4,0.4,2.2,0.3c0.1-0.1,0.3-0.1,0.2-0.3c-0.1-0.4-0.4-0.8-0.8-0.9
		c-0.1-0.2-0.4-0.1-0.5-0.3c-2.1-1.2-4.6-0.6-7-0.5c-1.3,0.1-2.5,0.4-3.6-0.4c-0.5-0.6-0.1-2.5-0.1-2.5c0-0.7,1.8-5.9,2-6.3
		c0.1-0.5,0.3-1,0.2-1.5c0.3-0.7,0.2-1.5,0.2-2.2c0.1-1.1,0.7-2,1-3.1c0.2-0.5,0.4-1,0.6-1.5c0.2-0.6,0.3-1.2,0.7-1.7
		c1.1,0.7,2.1,0.7,2.6,1.9l0.4,2.7c0,0.2,0.1,0.5,0.4,0.3c0.8-0.6,0.6-1.8,0.6-2.7c0.2-1-0.5-1.5-0.8-2.4c-0.2-0.2-0.6-0.9-0.6-0.9
		c-0.1-0.7-1.7-1.2-1.4-2.1c0.2-0.8,0.4-1.4,1.1-1.9c0.1,0.1,0.2,0.2,0.2,0.2l0.4-0.3l0-2.7c1.1,0,2.6,0.1,3.7,0.1
		c0.3,0.1,0.5,0.3,0.8,0.4l0.3-0.4l2.6-0.5C57.3,25.5,56.7,24.2,55.6,24.2L55.6,24.2z"/>
	<path class="st6" d="M58.5,25.4c0.1,0,0.2,0,0.2,0L58.5,25.4L58.5,25.4z"/>
	<path class="st5" d="M30.1,34.5c0,0.4-0.2,0.6-0.5,0.8c-0.3-0.1-0.5-0.1-0.6-0.4c-0.1-0.4,0.2-0.6,0.5-0.8
		C29.7,34.2,30,34.2,30.1,34.5L30.1,34.5z"/>
	<path class="st5" d="M28,34.5c0.2,0.2,0.2,0.5,0.1,0.8c-0.2,0.2-0.6,0.4-0.8,0.1c-0.2-0.2-0.4-0.4-0.2-0.7
		C27.3,34.4,27.7,34.3,28,34.5L28,34.5z"/>
	<path class="st6" d="M73.3,34.9C73.3,34.9,73.3,34.9,73.3,34.9"/>
	<path class="st5" d="M98.1,35.4c0.1,0.4-0.2,0.6-0.4,0.8c-0.3-0.1-0.7-0.2-0.7-0.6c0-0.3,0.3-0.4,0.5-0.5
		C97.7,35,98,35.2,98.1,35.4L98.1,35.4z"/>
	<path class="st5" d="M99.8,35.4c0.1,0.2,0.3,0.4,0.1,0.6c-0.1,0.1-0.2,0.1-0.3,0.3c-0.4,0.1-0.7-0.1-0.8-0.4
		c-0.1-0.4,0.2-0.5,0.5-0.7C99.5,35.1,99.7,35.2,99.8,35.4L99.8,35.4z"/>
	<path class="st5" d="M19.8,35.8c-0.1,0.4-0.5,0.6-0.9,0.4c-0.1-0.1-0.2-0.3-0.3-0.4c0-0.2,0.1-0.5,0.4-0.6
		C19.4,35.2,19.7,35.4,19.8,35.8L19.8,35.8z"/>
	<path class="st5" d="M30.8,36.3c0,0.3-0.3,0.5-0.6,0.6c-0.3,0-0.6-0.2-0.7-0.5c0-0.3,0.1-0.6,0.4-0.7C30.3,35.7,30.7,36,30.8,36.3
		L30.8,36.3z"/>
	<path class="st5" d="M28.9,36.1c0.1,0.1,0.2,0.4,0.1,0.5c-0.2,0.2-0.5,0.5-0.8,0.3c-0.2-0.2-0.4-0.3-0.4-0.6
		c0.1-0.1,0.3-0.3,0.5-0.4C28.5,35.8,28.7,36,28.9,36.1L28.9,36.1z"/>
	<path class="st5" d="M104.8,36.5c0,0.3-0.3,0.5-0.4,0.6c-0.3,0.1-0.6,0-0.7-0.2c-0.2-0.1-0.1-0.3-0.1-0.5c0.2-0.2,0.4-0.4,0.6-0.4
		C104.5,36.1,104.7,36.3,104.8,36.5L104.8,36.5z"/>
	<path class="st5" d="M106.9,36.8c-0.1,0.3-0.3,0.6-0.6,0.6c-0.2,0-0.6-0.1-0.5-0.4c0-0.2,0.1-0.5,0.3-0.5
		C106.4,36.3,106.8,36.4,106.9,36.8L106.9,36.8z"/>
	<path class="st5" d="M23.5,37.2c0.1,0.4-0.1,0.7-0.4,0.8c-0.2,0.1-0.5,0-0.6-0.2c-0.2-0.2-0.3-0.4-0.2-0.7c0.1-0.3,0.4-0.2,0.6-0.4
		C23.2,36.9,23.4,37,23.5,37.2L23.5,37.2z"/>
	<path class="st5" d="M25.1,37.5c0.1,0.3-0.2,0.4-0.3,0.6c-0.2,0.1-0.4,0.2-0.6,0.1C24,38,23.8,37.7,24,37.4
		C24.3,36.9,25,37.1,25.1,37.5L25.1,37.5z"/>
	<path class="st5" d="M102.9,37.4c0,0.3-0.3,0.6-0.5,0.8c-0.3,0.1-0.6-0.1-0.7-0.4c0-0.3,0.1-0.5,0.4-0.6
		C102.5,37.1,102.7,37.1,102.9,37.4L102.9,37.4z"/>
	<path class="st5" d="M105.6,37.9c-0.1,0.3,0,0.6-0.4,0.8c-0.3,0.1-0.6,0-0.8-0.1c-0.2-0.2-0.2-0.5-0.1-0.7c0.2-0.3,0.5-0.5,0.8-0.4
		C105.3,37.6,105.4,37.8,105.6,37.9L105.6,37.9z"/>
	<path class="st5" d="M22.3,38.6c0.1,0.3-0.2,0.3-0.3,0.5c-0.2,0.1-0.5,0-0.7-0.1c-0.2-0.1-0.1-0.5-0.1-0.6
		C21.6,37.8,22.2,38.2,22.3,38.6L22.3,38.6z"/>
	<path class="st5" d="M103.5,39.2c0.1,0,0.1,0.2,0,0.3c-0.8,0.4-2,0.5-2.6-0.1c-0.4-0.3-0.9-0.5-1.3-0.7c0.2-0.4,0.7-0.4,1.2-0.5
		C101.7,38.3,102.5,39.2,103.5,39.2L103.5,39.2z"/>
	<path class="st5" d="M23.8,38.9c0.1,0.3-0.1,0.4-0.2,0.6c-0.1,0.2-0.4,0.1-0.6,0.1c-0.3-0.2-0.4-0.6-0.2-0.8
		C23.2,38.3,23.6,38.5,23.8,38.9L23.8,38.9z"/>
	<path class="st5" d="M26.7,39.1c0.1,0.3-0.1,0.6-0.3,0.7c-0.2,0.1-0.4-0.1-0.6-0.1c-0.2-0.2-0.5-0.5-0.2-0.8
		C25.9,38.5,26.5,38.7,26.7,39.1L26.7,39.1z"/>
	<path class="st5" d="M64.4,40.5c-0.1,0.7-1.1-0.1-1,0.8c0.2,0.6,0.3,1.4,0.7,1.8c0.3,0.4,0.2,1.1,0.1,1.7c-0.3,0.5-0.7,0.8-1.2,1.1
		c-0.9-0.1-2.3,0.5-2.7-0.7c-0.2-0.5-0.5-1-0.5-1.6c0.1-0.1,0.2-0.1,0.3-0.2c0-0.2-0.2-0.3-0.2-0.6c1.1-0.2-0.4-1.1,0.5-1.2
		c0.7,0.8,1.9,0.5,2.6,1.4c0.2,0.1,0.3,0.3,0.5,0.4c-0.1-0.8-0.5-1.6-0.6-2.4c-0.1-0.4,0.1-0.8,0.4-1.1C63.6,39.5,64,40.1,64.4,40.5
		L64.4,40.5z"/>
	<path class="st5" d="M29.6,40.3c0.1,0.3-0.2,0.5-0.4,0.7c-0.3,0.1-0.5-0.2-0.6-0.4c-0.1-0.3,0.1-0.5,0.3-0.7
		C29.2,40,29.4,40.1,29.6,40.3L29.6,40.3z"/>
	<path class="st5" d="M49.7,40.6c0.4,1.3,0.3,2.6-0.4,3.7c0,0.3,0.1,0.7-0.3,0.7c-0.9-1.2-0.2-2.9,0.1-4.2
		C49.2,40.4,49.6,40.3,49.7,40.6L49.7,40.6z"/>
	<path class="st5" d="M77.5,41.2c0.5,0.9,0.5,2.1,0.1,3.1l-0.3,0.3c-0.4-0.8-0.7-1.5-0.7-2.3c0.2-0.6,0.4-1.1,0.4-1.7
		C77.4,40.4,77.4,41,77.5,41.2L77.5,41.2z"/>
	<path class="st5" d="M32.1,41.6c-0.2,0.4-0.7,0.5-1.1,0.8c-0.8,0.6-1.9,0.7-2.9,0.6c0.8-1.2,2.1-1.9,3.7-1.5
		C31.9,41.5,32.1,41.4,32.1,41.6L32.1,41.6z"/>
	<path class="st5" d="M18.7,42.8c1.2,0.9,1.5,2,2.2,3.2c0.1,0.1,0.4,0.2,0.3,0.4c-0.3,0.2-0.5-0.2-0.9-0.1c-1.2-0.6-2-1.9-2-3.4
		C18.4,42.8,18.6,42.8,18.7,42.8L18.7,42.8z"/>
	<path class="st5" d="M76.3,43.8c0,0.3,0,0.7-0.3,0.8c-0.4,0.1-0.7-0.1-0.7-0.4c-0.1-0.2,0.1-0.4,0.2-0.5
		C75.7,43.4,76.1,43.5,76.3,43.8L76.3,43.8z"/>
	<path class="st5" d="M90,45.5c0-0.6,0.2-1.2,0.2-1.8c0.1-0.2,0.2-0.4,0.1-0.7c0.8-1.1,2.4-0.7,3.6-0.6c0.5,0.3,1.1,0.2,1.6,0.4
		c0.2-0.2,0.6-0.2,0.8-0.2c1-0.6,0.4-1.8,0.4-2.7l-0.4-1c-0.1-0.2-0.2-0.4-0.3-0.7c-0.2-0.2-0.3-0.7-0.5-0.9
		c-0.6-1.4-1.6-2.3-2.5-3.4c-1.7-2.2-4.3-3.4-6.9-4.2c-2.6-0.9-5.2,0.3-7.5,1.1c-0.7-0.2-1.1-0.8-1.3-1.4c-0.1-1.2,0.1-2.5,0.6-3.5
		c0.1-0.8,0.7-1.4,0.9-2.2c0.6-1.8,1.2-3.6,1.3-5.6c0.1-1.2-0.8-2.1-1.8-2.6c-0.6-0.2-1.3-0.1-1.8,0.4c-0.4,0.9-1.3,1.5-2.1,1.9
		c-0.1,0.6,0.6,0.2,0.8,0.4c0.7,0.1,1.5-0.1,2.1,0.4c0.1,1.3-0.7,2.4-1.4,3.4c-1.1,1.6-2.3,3.3-3,5.1l-0.1-0.1l0.2,8
		c1,1.7,2.3,3.7,4.3,4.3c1,0.9,2.3,1.9,3.7,1.1c0.7-0.2,0.8,0.8,1.2,1.2c0.4,1.2-0.5,2.1-0.6,3.2l-0.8,1.8c-1,1.9-1.9,3.9-3.4,5.5
		c-0.5,0-0.8,0.5-1.3,0.6c-0.3,0.4-0.8,0.1-1.1,0.2c-1,0.4-2.4,0.2-3.1,1.1c0.1,0.1,0.2,0.1,0.3,0.2c2,0,4.2,0.2,6.3,0.1
		c0.3-0.1,0.5-0.3,0.5-0.6c-0.3-0.6,0.1-1,0.4-1.5c0.2-0.8,0.7-1.3,0.9-2c0.7-1.3,1.5-2.7,2.2-4l1-1.6c0.2-0.6,0.6-1.2,1-1.8
		c0.3-0.3,0.4-0.6,0.6-0.9c0-0.3-0.1-0.5-0.3-0.7c0.2-0.2,0.6-0.2,0.9-0.2c0.8,0.5,1.7,1.3,1.8,2.2l0.3,0.9l0.1,0.4l-0.1,1.1l0.1,1
		c0.2,1.6-0.1,3.2-0.3,4.8c-0.6,1.9-2.7,1.7-4.3,2.1c-0.4,0.3-1.1,0.1-1.1,0.8c1.9,0.4,4.1,0.2,6.1,0.1c0.3-0.1,0.4-0.4,0.6-0.7
		c0.1-0.4,0.5-0.8,0.4-1.2c-0.4-0.5,0-1.2-0.1-1.8c0.1-0.2,0.1-0.4,0-0.6c0.3-1,0.2-2.1,0.4-3L90,45.5L90,45.5z"/>
	<path class="st5" d="M106,44.3c-1,1.5-2.1,3.1-4,3.7c-0.1,0-0.3,0.1-0.3-0.1c1.1-1.2,1.7-3,3.4-3.4C105.4,44.3,105.8,44.1,106,44.3
		L106,44.3z"/>
	<path class="st5" d="M17.1,45.9c-0.2,0.1,0,0.4-0.3,0.5c-0.3,0.1-0.6,0-0.7-0.3c-0.1-0.3,0.2-0.7,0.4-0.7
		C16.8,45.4,17.1,45.5,17.1,45.9L17.1,45.9z"/>
	<path class="st5" d="M26.5,46.3c0.1,0.3-0.2,0.3-0.4,0.4c-1.4,0.5-2.8,0-3.7-1c0-0.1,0-0.3,0.1-0.3C23.8,45.8,25.4,45.5,26.5,46.3
		L26.5,46.3z"/>
	<path class="st5" d="M18.9,45.9C19,46,19,46.3,19,46.4c-0.2,0.3-0.5,0.4-0.8,0.3c-0.2-0.1-0.3-0.2-0.4-0.4c0-0.3,0.3-0.5,0.6-0.6
		C18.6,45.7,18.8,45.7,18.9,45.9L18.9,45.9z"/>
	<path class="st5" d="M49.4,46.1c0.1,0.3-0.2,0.5-0.4,0.6c-0.3,0.1-0.6-0.1-0.7-0.3c-0.1-0.2,0-0.6,0.2-0.6
		C48.9,45.7,49.3,45.8,49.4,46.1L49.4,46.1z"/>
	<path class="st5" d="M107.3,46.2c0.1,0.3-0.2,0.5-0.4,0.7c-0.2,0.1-0.4,0-0.6-0.1c0-0.2-0.2-0.3-0.2-0.5c0.1-0.3,0.4-0.4,0.7-0.4
		C107,46,107.1,46,107.3,46.2L107.3,46.2z"/>
	<path class="st5" d="M109.4,46.1c0.2,0.3,0,0.5-0.1,0.8c-0.1,0.2-0.4,0.3-0.6,0.2c-0.2-0.2-0.5-0.3-0.5-0.6c0-0.3,0.3-0.5,0.5-0.6
		C109,45.7,109.2,46.1,109.4,46.1L109.4,46.1z"/>
	<path class="st5" d="M15.8,47c0,0.2-0.2,0.4-0.2,0.6c-0.2,0.1-0.3,0.2-0.5,0.1c-0.2-0.1-0.4-0.3-0.5-0.5c0.1-0.3,0.3-0.6,0.6-0.7
		C15.4,46.6,15.7,46.7,15.8,47L15.8,47z"/>
	<path class="st5" d="M84.3,47c0.1,0.1,0,0.3,0,0.4c-0.2,0.3-0.5,0.5-0.8,0.3c-0.2-0.2-0.4-0.4-0.3-0.7C83.5,46.7,84.1,46.6,84.3,47
		L84.3,47z"/>
	<path class="st5" d="M21,47.5c-0.1,0.2-0.2,0.5-0.5,0.5c-0.3,0-0.4-0.2-0.6-0.4c0-0.3,0-0.6,0.3-0.8C20.7,46.7,21,47.1,21,47.5
		L21,47.5z"/>
	<path class="st5" d="M17.9,47.6c0.1,0.3-0.1,0.6-0.3,0.7c-0.4,0.1-0.7-0.2-0.9-0.5c0-0.3,0.3-0.7,0.6-0.8
		C17.6,47.1,17.7,47.4,17.9,47.6L17.9,47.6z"/>
	<path class="st5" d="M86.5,47.5c0.1,0.3,0,0.7-0.4,0.8c-0.4,0.1-0.7-0.2-0.9-0.5c0.2-0.3,0.2-0.6,0.6-0.7
		C86.1,47.1,86.3,47.3,86.5,47.5L86.5,47.5z"/>
	<path class="st5" d="M19.4,47.6c0.1,0.2-0.1,0.3-0.2,0.5c-0.2,0-0.3,0.2-0.5,0.1c-0.1-0.2-0.4-0.2-0.4-0.5c0-0.3,0.2-0.5,0.4-0.6
		C19.1,47.1,19.3,47.4,19.4,47.6L19.4,47.6z"/>
	<path class="st5" d="M105.5,47.9c-0.1,0.3-0.3,0.4-0.6,0.5c-0.3,0.1-0.4-0.2-0.6-0.3c-0.2-0.1-0.1-0.4,0-0.6
		C104.6,47,105.5,47.3,105.5,47.9L105.5,47.9z"/>
	<path class="st5" d="M108,48c-0.1,0.4-0.5,0.5-0.8,0.6c-0.3-0.1-0.6-0.4-0.4-0.8c0.1-0.1,0.2-0.3,0.4-0.3
		C107.6,47.4,107.9,47.7,108,48L108,48z"/>
	<path class="st5" d="M92.5,48.3c0.2,0.4-0.2,0.6-0.5,0.8c-0.2,0-0.4-0.1-0.6-0.3c-0.1-0.4,0.1-0.7,0.5-0.9
		C92.1,47.9,92.3,48,92.5,48.3L92.5,48.3z"/>
	<path class="st5" d="M83.5,48.6c0.2,0.1,0.1,0.3,0.1,0.4c-0.2,0.1-0.5,0.5-0.7,0.3c-0.2-0.1-0.4-0.3-0.3-0.6
		C82.7,48.3,83.4,48.3,83.5,48.6L83.5,48.6z"/>
	<path class="st5" d="M85.4,48.9c0,0.3,0,0.4-0.3,0.5c-0.2,0.2-0.5,0-0.7-0.1c-0.1-0.1-0.1-0.3,0-0.5c0.1-0.1,0.3-0.2,0.4-0.3
		C85,48.6,85.3,48.6,85.4,48.9L85.4,48.9z"/>
	<path class="st5" d="M30.1,48.9c0.2,0.2,0,0.4-0.1,0.6c-0.2,0.2-0.5,0.4-0.8,0.2c-0.3-0.1-0.3-0.6-0.2-0.8c0.2-0.1,0.2-0.3,0.5-0.3
		C29.7,48.6,29.9,48.7,30.1,48.9L30.1,48.9z"/>
	<path class="st5" d="M96,49c0.1,0.3-0.3,0.5-0.5,0.5c-0.4,0.1-0.6-0.2-0.7-0.4c0-0.2,0.2-0.3,0.3-0.5C95.5,48.5,95.7,48.8,96,49
		L96,49z"/>
	<path class="st5" d="M94.2,49c0.1,0.3-0.2,0.5-0.4,0.7c-0.2,0.1-0.5,0.1-0.7-0.1C93,49.5,93,49.3,93,49.1c0.2-0.2,0.3-0.4,0.5-0.4
		C93.8,48.6,94.1,48.8,94.2,49L94.2,49z"/>
	<path class="st5" d="M108.9,49.4c0.1,0.5-0.5,0.2-0.7,0.4c-1.4,0.8-3.1,0.2-4.4-0.3c0.1-0.4,0.6-0.3,0.8-0.4
		C106,48.2,107.4,49.3,108.9,49.4L108.9,49.4L108.9,49.4z"/>
	<path class="st5" d="M19.8,49l-0.1,0.2c-1.2,0.7-2.8,1.2-4.2,0.8l-0.1-0.2C16.5,48.9,18.1,48.7,19.8,49L19.8,49L19.8,49z"/>
	<path class="st5" d="M99.3,49.3c0,0.3-0.1,0.5-0.3,0.6c-0.3,0.1-0.7,0-0.8-0.4c-0.1-0.3,0.2-0.5,0.4-0.6
		C98.8,48.9,99.2,48.9,99.3,49.3L99.3,49.3z"/>
	<path class="st5" d="M25.6,49.4c-0.1,0.3-0.1,0.5-0.4,0.7c-0.3,0.1-0.7-0.2-0.8-0.4c-0.1-0.4,0.2-0.5,0.3-0.6
		C25.1,48.8,25.4,49.1,25.6,49.4L25.6,49.4z"/>
	<path class="st5" d="M23.3,49.6c0.1,0.2-0.1,0.4-0.2,0.5c-0.2,0.2-0.5,0.2-0.7,0.1c-0.2-0.2-0.5-0.4-0.4-0.8
		c0.2-0.2,0.3-0.3,0.5-0.4C22.9,49.1,23.2,49.2,23.3,49.6L23.3,49.6z"/>
	<path class="st5" d="M101.6,50.3c0,0.3-0.3,0.5-0.5,0.6c-0.3,0-0.5-0.2-0.6-0.3c-0.1-0.2-0.1-0.5,0.1-0.6c0.1-0.1,0.3-0.1,0.4-0.2
		C101.3,49.8,101.5,50.1,101.6,50.3L101.6,50.3z"/>
	<path class="st5" d="M20.9,50c0.1,0.3-0.1,0.4-0.2,0.6c-0.1,0.6-0.5,0.9-0.7,1.4c-0.6,0.8-1.5,0.8-2.4,1l-0.1-0.3
		C18.4,51.4,19.5,50.5,20.9,50L20.9,50L20.9,50z"/>
	<path class="st5" d="M99.9,50.7c0.1,0.4-0.3,0.5-0.5,0.6c-0.3,0-0.5-0.2-0.7-0.4c-0.1-0.4,0.2-0.5,0.4-0.7
		C99.6,50.2,99.8,50.4,99.9,50.7L99.9,50.7z"/>
	<path class="st5" d="M24.6,50.7c0,0.1,0,0.1,0.1,0.2c0,0.4-0.3,0.5-0.5,0.6c-0.3,0-0.5-0.1-0.7-0.3c-0.1-0.3,0-0.7,0.3-0.8
		C24.1,50.4,24.5,50.4,24.6,50.7L24.6,50.7z"/>
	<path class="st5" d="M105.9,51.7c0.3,0,0.4-0.4,0.7-0.5c0.3-0.1,0.6,0.1,0.8,0.4c0.1,0.4-0.2,0.6-0.4,0.8c-0.2,0.2-0.7-0.2-0.7,0.2
		c0.2,0.2,0.4,0.4,0.5,0.7c-0.1,0.1-0.3,0.1-0.4,0c-0.9-0.4-2-1-2.3-2c-0.1-0.3-0.7-0.5-0.4-0.8C104.6,50.3,105.4,51.1,105.9,51.7
		L105.9,51.7z"/>
	<path class="st5" d="M109.1,50.6c0.2,0.2,0.1,0.5,0,0.6c-0.2,0.3-0.7,0.2-0.9,0.2c-0.2-0.2-0.3-0.3-0.3-0.6
		c0.1-0.2,0.3-0.3,0.5-0.4C108.6,50.4,108.8,50.5,109.1,50.6L109.1,50.6z"/>
	<path class="st5" d="M97.2,52.4c0.3,0.4,0.6,0.9,0.7,1.3c-0.1,0.1-0.2,0.1-0.3,0.1c-1.1-0.6-2.5-1.3-3-2.6
		c-0.1-0.1-0.4-0.3-0.3-0.5c0.8-0.2,1.7,0.5,2.2,0.9C96.9,51.9,97.1,52.1,97.2,52.4L97.2,52.4z"/>
	<path class="st5" d="M22.8,51.2c0.1,0.3-0.1,0.5-0.3,0.7c-0.4,0.1-0.6-0.1-0.7-0.3c-0.2-0.4,0.2-0.7,0.5-0.8
		C22.5,50.7,22.6,51,22.8,51.2L22.8,51.2z"/>
	<path class="st5" d="M101.3,51.9c0,0.2-0.2,0.3-0.3,0.5c-0.3,0-0.5,0.1-0.7-0.1c-0.1-0.2-0.2-0.4,0-0.6
		C100.6,51.2,101.1,51.6,101.3,51.9L101.3,51.9z"/>
	<path class="st5" d="M109.4,52.4c0.1,0.4-0.2,0.7-0.5,0.8c-0.3,0.1-0.6-0.1-0.8-0.3c-0.2-0.2,0-0.4,0-0.6c0.2-0.2,0.5-0.4,0.8-0.2
		C109.2,52.2,109.3,52.2,109.4,52.4L109.4,52.4z"/>
	<path class="st5" d="M86.9,56.9c0,0.4-0.7,0.3-1,0.6c-1,0.5-2.2,0.5-3.4,0.5v-0.2C83.6,56.8,85.3,56.5,86.9,56.9L86.9,56.9z"/>
	<path class="st5" d="M39.4,58.3c0,0.3-0.2,0.5-0.5,0.6c-0.2,0-0.5-0.1-0.6-0.3c-0.1-0.4,0.2-0.6,0.4-0.7
		C39.1,57.9,39.3,58.1,39.4,58.3L39.4,58.3z"/>
	<path class="st5" d="M86.3,58.7c-0.1,0.3-0.2,0.6-0.5,0.8c-0.3,0.1-0.5-0.1-0.7-0.2c-0.2-0.1-0.1-0.4-0.1-0.5
		C85.3,58.1,86.1,58.1,86.3,58.7L86.3,58.7z"/>
	<path class="st5" d="M92.8,58.8C92,59.3,91.1,60,90,60l-1.8,0l-0.2-0.1c1.1-1.3,3-1.3,4.7-1.2V58.8L92.8,58.8z"/>
	<path class="st5" d="M30.5,59.6c0,0.3-0.1,0.5-0.4,0.6c-0.3,0.1-0.6-0.1-0.7-0.3c-0.1-0.3,0-0.6,0.3-0.8
		C30,58.9,30.3,59.3,30.5,59.6L30.5,59.6z"/>
	<path class="st5" d="M32.1,59.9c0.1,0.2-0.1,0.3-0.1,0.4c-0.2,0.1-0.5,0.2-0.6,0c-0.2-0.1-0.3-0.4-0.2-0.6c0.1-0.2,0.3-0.2,0.4-0.3
		C31.8,59.6,32,59.7,32.1,59.9L32.1,59.9z"/>
	<path class="st5" d="M19.6,63.2c-0.3,0.4-0.8-0.1-1.2-0.3c-1.1-0.7-1.1-1.9-2.2-2.7c0.1-0.4,0.4,0,0.7,0c0.2,0.1,0.5,0.3,0.7,0.4
		C18.6,61.2,18.9,62.3,19.6,63.2L19.6,63.2z"/>
	<path class="st5" d="M114.5,50.5c-0.5-1-1.4-1.3-2.4-1.3c-0.8,0.1-1.5,0.6-1.8,1.3c-0.2,0.7,0.1,1.4,0.6,1.8
		c0.2,0.1,0.5,0.1,0.7-0.2c0.2-0.4-0.3-0.4-0.4-0.8c-0.1-0.5,0-0.9,0.4-1.1c0.3-0.3,0.9-0.2,1.3-0.2c0.4,0.3,0.8,0.5,1,1
		c0.2,0.6,0.2,1.2,0,1.7c-0.4,0.8-1.2,1.5-2,1.6c-2.7,0.4-32.4,0.3-32.4,0.3c-3.5,0.3-7.5-0.7-10.5,1.2c-1.4,0.7-2.1,2.2-2.4,3.5
		c-0.9,0.8-1.8,1.7-2.5,2.6l-0.1-0.1c0.2-0.8,0.5-1.5,0.7-2.3c0.5-0.7,0.5-1.5,0.8-2.3c1.2-2,2.4-4,4.3-5.4c0.8-1.1,2.2-0.9,3.5-0.9
		c1.3,0.6,2.9,0.8,4.5,0.7c0.1-0.1,0.1-0.1,0.1-0.2c-0.5-0.4-1.2-0.6-1.7-1c-1.3-0.6-2.5,0.2-3.9,0.1c-0.1-0.1-0.1-0.1-0.1-0.2
		c1.2-0.9,2.6-1.6,4-2.2c1.1-0.6,2.3-1,3.5-1.4c0.5,0,0.9-0.4,1.4-0.1l1.7-0.5c0.1,0,0.1,0.1,0.3,0.1c1.5-0.5,3.3,0,5-0.1l0.2,0.2
		l1.6,0.4c0.6,0.1,0.8,0.8,1.5,0.8c0.3-0.5-0.4-0.7-0.5-1c0.7-0.2,1.5,0,2.2,0.3l-0.3,0.4c-0.2,0.4,0.1,0.6,0.4,0.8
		c0.2,0.1,0.4-0.1,0.6-0.2c0.4-0.3,0-0.6,0.1-0.9c2.4,0.4,4.7,1,6.9,2c0.6,0.2,1.2,0.7,1.9,0.6c-0.7-0.6-1.6-1-2.5-1.3
		c-0.6-0.3-1.3-0.4-1.8-0.8c0.1-0.2,0.3-0.1,0.4-0.2c1.1-0.1,2.1-1,2.8-1.8c0.1-0.2,0.4-0.1,0.4-0.4c-0.3-0.3-0.8,0.1-1.2,0.1
		c-1.4,0.3-2,1.9-3.3,2.2c-1.7-0.4-3.4-0.8-5-1.2c-0.8-0.1-1.7-0.2-2.4-0.5l-1.8-0.2h-3.3c0-0.1-0.1-0.1-0.1-0.2
		c1.2-0.3,2.2-1,3.4-1.3l8.7-4c0.9-0.8,1.7-1.7,2.5-2.7c0-0.3-0.1-0.5-0.4-0.6c-0.2-0.1-0.5-0.1-0.7,0.1c-0.4,0.3,0,0.7,0,1
		c-0.4,0.5-1,1-1.5,1.3c-0.1,0-9,4-9,4c-1.3,0.6-2.6,1.2-4,1.5L82,44.8c-0.1,0.4-0.5,0.6-0.8,0.8c-0.5,0.1-0.9,0.4-1.5,0.4
		c-4.2,1.6-8.6,3.4-12,6.7c0.2-0.4,0.3-0.9,0.3-1.4c-0.1-0.5,0-1-0.4-1.4c-0.1-0.2-0.3-0.7-0.2-0.9l-0.5,0.3c-0.3,0.7-0.6,2-0.3,2.8
		c0.1,0.6,0.6,1.3,0.1,1.8c-1.6,1.9-2.4,4.2-3.5,6.4c-0.4-0.1-0.6-0.4-0.7-0.8c1.1-1.4,2-3,2.3-4.8c0.2-0.2,0.1-0.6,0.3-0.8
		c-0.1-0.5,0.3-1,0-1.5c0.2-0.7-1-1.4-0.2-1.8l-0.6,0.3c-1.4,1.8,0.7,4.6-0.9,6.4v0.1c-0.5,0.6-0.7,1.2-1.3,1.6
		c-0.8-0.3-1.1-1.2-1.5-1.9C60,56.4,60,55,60.4,54c0.3-1-0.2-1.8-0.3-2.6l-0.3-0.2c-0.8,1-1.1,2.6-0.5,3.8c0.3,0.6,0.4,1.4,0.8,1.9
		c0.3,1,0.9,1.6,1.4,2.4c0.1,0.3-0.2,0.4-0.4,0.6c-0.4-0.2-0.3-0.8-0.6-1c-1.1-2.3-2.5-4.1-4.2-6c-0.1-0.3-0.4-0.6-0.2-0.9
		c0.6-0.6,0.7-1.7,0.4-2.5c-0.1-0.2-0.3-0.4-0.2-0.5l-0.5-0.4c0.1,1.1-0.7,2.2-0.4,3.4v0.1c-3.4-2.5-7.1-4.8-10.8-6.6l-0.3,0.8
		c1,0.2,3.5,1.8,3.5,1.8c1.1,0.4,2.2,1.1,3.3,1.7c4.4,2.5,7.4,6.5,9.3,11.1c0,0.4,0.4,0.8,0.1,1.1c-0.7-1-1.7-1.6-2.5-2.5
		c-0.2-1.5-1.1-3-2.5-3.6c-0.5-0.7-1.5-0.8-2.3-1l-11.9-0.1c-9.6-0.1-18.4,0.3-28,0.1c-1.3-0.1-3-0.6-3.4-2c-0.3-0.5-0.3-1.3,0-1.8
		c0.4-0.6,1-0.8,1.7-0.9c0.5,0.1,0.9,0.6,1.1,0.9c0,0.4-0.4,0.8-0.5,1.2c0,0.1,0.2,0.4,0.4,0.3c0.4-0.2,0.7-0.6,0.8-1
		c0-0.2,0.1-0.6-0.1-0.7c-0.2-0.7-0.9-1.2-1.5-1.3c-0.8-0.1-1.7,0.2-2.2,0.8C9,51,9,52.2,9.3,53.1c0.5,1.4,2.1,2.4,3.5,2.6l31.7,0.1
		c3.1,0.2,6.6-0.4,9.7,0.3c1.1,0.4,2.3,1.2,2.6,2.5c0,0.1-0.1,0-0.2,0c-2.6-1.7-6-2.3-9.2-1.9c-1.3-0.1-2.5,0.4-3.6,0.8
		c-0.6,0.1-1.2-0.2-1.6-0.5c-1.2-1-3.2-1-4.7-0.6c0,0.1,0,0.2,0,0.2c1.6-0.1,2.5,1.2,4,1.4c0.3,0.1,0.6-0.3,0.9,0
		c-1.5,0.7-2.9,1.6-4.5,2c-0.5-0.1-0.7-0.6-1.1-0.8c-0.6-0.7-1.8-0.4-2.6-0.5c-0.3,0.1-0.6-0.1-0.7,0c0.3,0.5,0.8,0.8,1.4,1.1
		c0.8,0.4,1.8,0,2.5,0.5c-0.2,0.2-0.5,0.3-0.7,0.5c-1.5,0.6-2.8,2-4.5,1.9c-1.8,0.2-3.6-0.3-4.8-1.6c-0.5-1.3-1.9-2-3.3-1.9
		c-0.1,0.1-0.2,0.1-0.2,0.2c0.7,0.4,1.3,1.3,2,1.8c0.5,0.6,1.3,0,1.8,0.6c0.6,0.4,1.4,0.8,2.1,0.9c0.5,0.2,1.1,0.3,1.7,0.5L31,63.2
		c-3,1-6.4,1.1-9.7,1c-1,0-1.9-0.3-2.9-0.3c0.2,0.2,0.5,0.4,0.8,0.5c-0.3,0.2-0.6,0.2-0.9,0.3c-0.4,0.1-0.8,0.1-1.2,0.3
		c-0.5,0-1,0.2-1.4,0.3c-0.6,0.6-1.2,1.2-1.9,1.5c0,0.1,0,0.3,0.1,0.3c0.6-0.3,1.4-0.1,2-0.3c1.1-0.1,1.7-1.3,2.5-1.8
		c0.9-0.7,2.2-0.6,3.3-0.4c0.7,0.2-0.1,0.4,0.1,0.9c0.3,0.2,0.5,0.5,0.8,0.4c0.1-0.1,0.1-0.1,0.2-0.2c0.2-0.3,0.2-0.6,0-0.8
		c0.5-0.3,1.1,0,1.6-0.2c1.2,0,2.5-0.3,3.7-0.3c0.2,0,0.4-0.2,0.6,0c-0.1,0.3-0.4,0.3-0.3,0.7c0.1,0.3,0.4,0.4,0.7,0.5
		c0.3-0.1,0.6-0.4,0.5-0.8c-0.1-0.2-0.3-0.3-0.5-0.4c0.7-0.3,1.5-0.4,2.1-0.8c0.5-0.1,0.9-0.3,1.4-0.5c0.4,0,0.8-0.4,1.2-0.3
		c-0.2,0.6-0.4,1.1-0.7,1.6c-0.5,1.7-0.9,4,0,5.7c0.1,0,0.1,0,0.2-0.1c-0.7-1.7-0.3-3.7,0.3-5.4c0.5-2.8,3.3-3.6,5.4-4.7l0.1,0.1
		c-0.6,1.4-1.4,2.8-1.2,4.6c0.1,0.3-0.1,0.6,0,0.8c0.6-0.3,0.9-1,1.2-1.5c0.2-1.5-0.6-3.3,0.9-4.4c2.7-1,5.2-2.4,8.3-2.5
		c0.1,0.1,0.3-0.1,0.4,0.1c-0.7,0.7-1.6,1.4-1.9,2.3c-1,1.4-1,3.9-0.6,5.7c0.3,1-0.6,1.6-1,2.4c-0.2,0.3-0.3,0.8-0.4,1.1l0.6,0.1
		c0.6-0.6,1.1-1.3,1.1-2.2c0.1,0.3,0.4,0.6,0.6,0.7c0.2-0.4-0.2-0.6-0.2-1c0.5-0.3,0.8,0.4,1.2,0.5c0.7,0.2,1.3,0.5,2,0.5l0.2-0.2
		c-0.7-1.1-2.1-1.3-3.4-1.4c-0.7-1.1-0.7-2.4-0.6-3.7c0.1-0.7,0.3-1.4,0.7-2c0.2-0.5,0.6-0.9,0.9-1.2c0.6-0.6,1.3-1,2.1-1.1h0.1
		c0,0.1,0,0.1,0,0.1c-0.9,0.7-1,1.6-1.5,2.5c-0.6,0.8-0.8,1.9-0.3,2.9c0.2,0.4,0.1,1.1,0.6,1.4c0.4-0.6,0.5-1.3,0.7-2
		c-0.1-1.1-0.7-2.1-0.1-3.1c0.3-0.8,1-1.1,1.8-1.4c1.8-0.2,3.4,0.8,4.9,1.4c0.3,0.2,0.9,0.4,0.9,0.9c0,0.9-0.5,1.8-1.2,2.2
		c-0.9,0.5-2.1,0.6-3,0c-0.5-0.5-0.7-1.3-0.5-2c0.4-0.4,0.8-0.7,1.4-0.5c0.3,0.2,0.6,0.5,1,0.3c0.2-0.1,0.2-0.4,0.1-0.5
		c-0.4-0.2-0.5-0.7-1-0.8c-0.6-0.1-1.4-0.1-1.8,0.4c-0.7,0.6-0.9,1.5-0.7,2.3c0.2,1,1,1.8,2,2.1c1.5,0.4,3.1-0.1,4-1.4
		c0.4-0.4,0.5-0.9,0.7-1.4c1.6,1,2.7,2.6,3.4,4.3c0,0.6,0.2,1.1,0,1.6l1.1,0.1c-0.1-0.3,0-0.6,0.1-0.8c0.4-2.2,1.8-4,3.4-5.4
		c0.6-0.3,0.4,0.4,0.6,0.7c0.5,1.2,1.6,2.1,2.8,2.5c1.4,0.2,2.7-0.1,3.5-1.1c0.4-0.8,0.9-1.9,0.2-2.8c-0.5-0.6-1.1-0.9-1.8-0.9
		c-0.8,0-1.4,0.6-1.8,1.2c0,0.3,0,0.6,0.2,0.7c0.1,0,0.4,0,0.5-0.2c0.1-0.5,0.5-0.7,0.9-1c0.4-0.2,0.7,0,1,0.2
		c0.4,0.3,0.4,0.8,0.5,1.3c-0.1,0.6-0.5,1.3-1.1,1.5c-0.9,0.5-2.3,0.3-3.1-0.3c-0.4-0.4-0.6-0.9-0.9-1.4c-0.1-0.5-0.3-1,0-1.5
		c1.4-0.9,2.9-1.5,4.7-1.6c0.7,0.1,1.3,0.6,1.7,1.1c1.5,1.5-0.3,3.7,0.7,5.4c0.4-0.1,0.4-0.6,0.6-0.9c0.5-1.2-0.1-2.5-0.4-3.6
		c-0.4-0.7-0.6-1.3-1.2-1.9c0.2-0.1,0.2-0.1,0.4-0.1c0.7,0.5,1.4,1,2,1.7c0.9,1.5,1.4,3.4,1.3,5.4c-0.3,1-1.3,1.4-2.1,1.8
		c-0.3,0.3-0.7,0.7-0.9,1.1c0.4,0.2,0.9,0,1.3-0.2c0.6-0.2,1-1,1.4-1.4c0.1,0,0,0.1,0.1,0.2c0,0.4-0.2,0.9,0.2,1
		c0.2-0.5,0.2-1.1,0.3-1.7c0.4,0.5,0.5,1,0.6,1.6c0.3,0.6,0.8,1.4,1.6,1.5c0.2-0.3,0-0.6-0.1-0.9c-0.1-0.8-0.8-1.2-1.2-1.8
		c-1.1-1.6-0.6-4-1.5-5.8c-0.3-1-1-1.6-1.8-2.4l0.1-0.1c1.6,0,2.9,0.5,4.4,0.8c1.8,0.9,4.4,0.7,5.2,3c0.4,1.3,0.9,2.5,1.9,3.5
		l0.1-0.1c0.2-0.3,0.2-0.9,0-1.2c-0.2-1.6-1.6-2-2.4-3.4l0.1-0.1c0.8,0.2,1.6,0.4,2.4,0.8c2.6,0.7,4.4,3.3,4.8,5.9
		c0,2.1-0.4,3.8-1.2,5.6c-0.1,0.3-0.6,0.6-0.3,0.8c0.4-0.3,0.4-0.7,0.6-1c1.1-1.8,1.6-4.3,1.1-6.6c0-0.4-0.5-0.8-0.3-1.2
		c0.2,0.2,0.4,0.2,0.6,0.3c0.2-0.1,0.5-0.1,0.6-0.4c0-0.2,0.2-0.4,0-0.6c-0.2-0.3-0.6-0.3-0.9-0.2c-0.2,0.2-0.4,0.5-0.4,0.7
		c-0.3-0.6-0.7-1.3-1.2-1.7l0.1-0.1c1.5,0.5,2.8,1.2,4.3,1.6c0.3,0.2,0.7,0.4,1.1,0.4c1.3,0.5,2.7,0.7,4,1c1-0.1,1.8,0.4,2.8,0.1
		v-0.1l0,0c-0.4-0.5-1.1,0-1.6-0.4c-2.2-0.2-4.4-0.8-6.4-1.6c0-0.1,0.2-0.1,0.3-0.1c0.3-0.2,0.6-0.5,0.5-0.8
		c-0.2-0.2-0.4-0.4-0.7-0.4c-0.2,0.1-0.5,0.3-0.5,0.6c0,0.3,0.3,0.6,0.5,0.6c-0.1,0.1-0.2,0-0.3,0c-1-0.5-2-0.9-3-1.3
		c-0.4-0.1-0.7-0.4-1-0.4c-0.7-0.4-1.5-0.7-2.2-1c-2.1-1.1-4.4-1.7-6.6-2.5c-0.5-0.1-0.9-0.3-1.4-0.4c-0.8-0.2-1.6-0.4-2.4-0.7
		c-2.8-0.7-6.5-0.8-8.9,0.8c-0.4-0.1-0.6,0.5-0.8,0.1c0.7-1.8,2.7-2.4,4.5-2.5c13.1-0.1,25.3-0.2,38.2-0.4c1.5,0,3-0.5,3.7-1.9
		C114.9,52.7,115,51.4,114.5,50.5L114.5,50.5z M62.8,62.6c-0.1,0.4-0.4,0.7-0.4,1.1l-0.1,0.1c0.1-0.5-0.4-0.8-0.3-1.3
		c-0.3-0.4-0.3-0.9-0.5-1.3c-0.3-0.5,0.3-0.8,0.5-1.1c0.5,0.2,0.6,0.6,0.9,1C63.1,61.7,62.7,62.1,62.8,62.6L62.8,62.6z"/>
	<path class="st5" d="M98.1,60.6c0,0.1,0.2,0.1,0.1,0.3c-1.1,1-2.7,1.3-4.4,1.4c-0.1,0-0.3,0.1-0.4,0.1c-0.1-0.1-0.1-0.2-0.1-0.2
		C94.5,60.8,96.3,60.2,98.1,60.6L98.1,60.6z"/>
	<path class="st5" d="M92.8,61.1c0.1,0.5-0.2,0.7-0.5,0.9c-0.4,0-0.6-0.3-0.7-0.5c-0.1-0.3,0.1-0.4,0.2-0.6
		C92.1,60.6,92.7,60.6,92.8,61.1L92.8,61.1z"/>
	<path class="st5" d="M30.9,61.1c0.1,0.2,0,0.5-0.2,0.7C30.7,62,30.4,62,30.2,62c-0.2,0-0.4-0.3-0.4-0.5c0-0.3,0.2-0.5,0.4-0.6
		C30.5,60.9,30.7,60.8,30.9,61.1L30.9,61.1z"/>
	<path class="st5" d="M25.1,63.3v0.2c-0.8,0.2-1.5,0-2.1-0.5c-0.5-0.7-1-1.3-1.7-1.6c0-0.1-0.2-0.2,0-0.3
		C22.9,61.1,23.9,62.4,25.1,63.3L25.1,63.3z"/>
	<path class="st5" d="M103,61.1c-0.7,1.1-1.4,2.5-2.7,3c-0.2,0-0.4,0.3-0.6,0.1c0.5-1.2,1.6-2.6,2.9-3.1
		C102.7,61.1,102.9,61,103,61.1L103,61.1z"/>
	<path class="st5" d="M32.8,61.5c0,0.4-0.2,0.4-0.5,0.6c-0.3,0-0.4-0.2-0.6-0.4c-0.1-0.3,0.2-0.5,0.3-0.6
		C32.4,61.1,32.7,61.3,32.8,61.5L32.8,61.5z"/>
	<path class="st5" d="M107.1,61.7c-0.3,0.4-0.2,1.1-0.5,1.5c-0.7,0.8-1.2,1.6-2.2,1.8c-0.2-0.3,0.2-0.7,0.4-1c0.5-1,1.1-2.1,2.1-2.5
		L107.1,61.7L107.1,61.7z"/>
	<path class="st5" d="M15,62c0.1,0.2,0.2,0.5,0,0.7c-0.2,0.2-0.5,0.2-0.7,0.1c-0.3-0.2-0.4-0.5-0.3-0.8C14.2,61.8,14.8,61.6,15,62
		L15,62z"/>
	<path class="st5" d="M13.2,62.4c0,0.2,0.1,0.3,0.1,0.5c-0.1,0.2-0.3,0.4-0.5,0.4c-0.4,0.1-0.6-0.1-0.7-0.4c0-0.3,0.1-0.6,0.3-0.7
		C12.7,62,13,62.2,13.2,62.4L13.2,62.4z"/>
	<path class="st5" d="M17,62.6c0.1,0.3,0.1,0.7-0.3,0.8c-0.5,0.2-0.7-0.1-1-0.4c0-0.3,0.2-0.5,0.4-0.7C16.5,62.3,16.8,62.3,17,62.6
		L17,62.6z"/>
	<path class="st5" d="M22.3,63c0,0.2,0,0.6-0.2,0.6c-0.2,0.2-0.5,0.1-0.6,0.1c-0.1-0.2-0.4-0.4-0.2-0.6c0.1-0.2,0.3-0.3,0.5-0.4
		C21.9,62.8,22.2,62.8,22.3,63L22.3,63z"/>
	<path class="st5" d="M110.3,63.2c-0.1,0.2-0.2,0.5-0.5,0.5c-0.3,0-0.6-0.1-0.7-0.4c-0.1-0.4,0.2-0.6,0.4-0.7
		C109.8,62.8,110.2,62.9,110.3,63.2L110.3,63.2z"/>
	<path class="st5" d="M104.3,63.4c0,0.3-0.3,0.5-0.4,0.6c-0.5,0.2-0.8-0.1-1-0.5c0.1-0.3,0.3-0.5,0.6-0.6
		C103.9,62.8,104.1,63.1,104.3,63.4L104.3,63.4z"/>
	<path class="st5" d="M108.3,63.3c0,0.2-0.1,0.5-0.3,0.6c-0.3,0.1-0.6,0.1-0.8-0.1c-0.3-0.3-0.1-0.5,0.1-0.7
		C107.7,62.9,108.2,62.9,108.3,63.3L108.3,63.3z"/>
	<path class="st5" d="M14.2,63.9c0.1,0.4-0.1,0.7-0.4,0.8c-0.3,0-0.6-0.2-0.7-0.5c0-0.3,0.1-0.6,0.3-0.7
		C13.7,63.5,14,63.7,14.2,63.9L14.2,63.9z"/>
	<path class="st5" d="M102.7,64.3c0.1,0.4-0.1,0.7-0.5,0.9c-0.3,0.1-0.4-0.1-0.6-0.2c-0.1-0.2-0.3-0.5,0-0.7
		C101.8,63.7,102.5,63.9,102.7,64.3L102.7,64.3z"/>
	<path class="st5" d="M31.7,64.6c0.1,0.4-0.3,0.4-0.4,0.6c-0.1,0.1-0.4,0.1-0.5,0c-0.2-0.2-0.4-0.4-0.3-0.7c0.2-0.1,0.2-0.3,0.4-0.3
		C31.4,64.1,31.5,64.4,31.7,64.6L31.7,64.6z"/>
	<path class="st5" d="M109.7,64.8c0.1,0.2-0.1,0.3-0.2,0.5c-0.2,0.2-0.5,0.2-0.7,0.1c-0.3-0.2-0.3-0.4-0.3-0.7
		c0.2-0.1,0.2-0.3,0.5-0.4C109.2,64.4,109.6,64.5,109.7,64.8L109.7,64.8z"/>
	<path class="st5" d="M107.7,64.9c0.1,0.4-0.2,0.6-0.5,0.7c-0.1,0-0.3-0.1-0.4,0.1c0.8,0.4,1.4,1.1,2,1.7v0.3
		c-1.2,0-2.4-0.3-3.2-1.2c-0.2-0.2-0.6-0.2-0.9-0.4c0.4-0.4,1.2-0.3,1.8-0.3c0.4-0.5-0.5-0.8,0.1-1.2c0.2,0,0.3-0.2,0.6-0.2
		C107.4,64.6,107.5,64.8,107.7,64.9L107.7,64.9z"/>
	<path class="st5" d="M94.3,65c0.1,0.2-0.1,0.4-0.2,0.5c-0.2,0.2-0.5,0.2-0.7,0.1c-0.2-0.2-0.4-0.4-0.3-0.8
		C93.4,64.4,94.2,64.5,94.3,65L94.3,65z"/>
	<path class="st5" d="M21.5,66.1c-0.1,0.3-0.2,0.5-0.6,0.5c-0.3,0-0.5-0.1-0.6-0.4c0-0.2,0.1-0.4,0.2-0.5
		C20.9,65.4,21.6,65.6,21.5,66.1L21.5,66.1z"/>
	<path class="st5" d="M24.2,65.7c0,0.5-0.5,0.7-0.7,1.2C23,68,22.2,68.9,20.9,69c-0.1-0.3,0.4-0.7,0.6-1C22,67,23,66.4,24,65.7H24.2
		L24.2,65.7z"/>
	<path class="st5" d="M93.6,66.2c0,0.4-0.3,0.6-0.6,0.8c-0.3,0.1-0.5-0.1-0.7-0.3c-0.3-0.3-0.1-0.5,0-0.8
		C92.7,65.5,93.3,65.8,93.6,66.2L93.6,66.2z"/>
	<path class="st5" d="M95.6,66.4c0,0.4-0.3,0.6-0.6,0.7c-0.1-0.1-0.2,0-0.3-0.1c-0.2-0.1-0.4-0.3-0.4-0.6c0.2-0.2,0.2-0.4,0.5-0.5
		C95,66,95.5,66,95.6,66.4L95.6,66.4z"/>
	<path class="st5" d="M29.2,66.4c0,0.4-0.2,0.6-0.5,0.7c-0.3,0-0.5-0.2-0.6-0.4c-0.1-0.3,0.2-0.5,0.4-0.7
		C28.9,65.9,29,66.2,29.2,66.4L29.2,66.4z"/>
	<path class="st5" d="M31.5,66.5c-0.1,0.3-0.3,0.5-0.6,0.6c-0.2-0.1-0.5-0.1-0.6-0.4c0-0.3,0.2-0.5,0.5-0.7
		C31,66,31.4,66.1,31.5,66.5L31.5,66.5z"/>
	<path class="st5" d="M102.6,68.8c0.2,0.1,0.5,0.3,0.4,0.5c-0.5,0.2-0.9-0.4-1.4-0.5c-0.8-0.8-1.4-1.6-1.7-2.6
		c0.3-0.3,0.6,0.1,0.9,0.2C101.5,67,102.2,67.8,102.6,68.8L102.6,68.8z"/>
	<path class="st5" d="M103.8,66.5c0.1,0.2,0.1,0.5-0.1,0.7c-0.2,0.3-0.6,0.3-0.9,0.2c-0.2-0.2-0.5-0.5-0.3-0.8
		c0.1-0.3,0.4-0.3,0.6-0.4C103.4,66.2,103.6,66.4,103.8,66.5L103.8,66.5z"/>
	<path class="st5" d="M34.5,67.3c0,0.3,0.1,0.7-0.2,0.8c-0.3,0.1-0.7,0-0.8-0.4c-0.2-0.4,0.2-0.5,0.4-0.7
		C34.1,67,34.3,67.2,34.5,67.3L34.5,67.3z"/>
	<path class="st5" d="M95.5,69.5c0.5,0.7,0.8,1.5,0.8,2.3c-0.1,0.2,0.2,0.5,0,0.6h-0.1c-1.5-1-1.8-2.5-2.3-4
		c-0.1-0.1-0.2-0.2-0.1-0.3c0.3-0.3,0.6,0.3,0.9,0.4L95.5,69.5L95.5,69.5z"/>
	<path class="st5" d="M38.7,68.4C38.7,68.4,38.7,68.4,38.7,68.4c-1.3,1-3.1,1.5-4.6,0.7c0-0.1,0-0.3,0.2-0.3
		c0.9-0.3,1.9-0.8,2.9-0.6L38.7,68.4L38.7,68.4z"/>
	<path class="st5" d="M31.3,68.5c-1.1,0.7-2.1,2-3.5,2.4c-0.3,0.1-0.4,0.5-0.7,0.3c0.6-1.8,2.5-2.7,4.2-2.9V68.5L31.3,68.5z"/>
	<path class="st5" d="M93.6,70c0.1,0.3,0,0.6-0.3,0.7c-0.2,0.2-0.5,0.2-0.6,0c-0.3-0.1-0.3-0.4-0.3-0.7c0.1-0.2,0.3-0.3,0.5-0.4
		C93.2,69.7,93.4,69.7,93.6,70L93.6,70z"/>
	<path class="st5" d="M90.9,70.2c-0.2,0.5-0.7,0.7-1.2,0.9c-1.1,0.4-2.1-0.1-3.1-0.4c0-0.3,0.4-0.2,0.5-0.3c1.1-0.2,2.2-0.5,3.3-0.2
		C90.5,70.1,90.8,70,90.9,70.2L90.9,70.2z"/>
	<path class="st5" d="M31.3,71.1c-0.1,0.1-0.1,0.4-0.4,0.5c-0.2,0.1-0.5,0-0.6-0.1c-0.1-0.2-0.3-0.4-0.1-0.6
		c0.1-0.2,0.3-0.3,0.5-0.4C30.9,70.6,31.2,70.8,31.3,71.1L31.3,71.1z"/>
	<path class="st5" d="M33.2,71.4c-0.1,0.2-0.2,0.5-0.5,0.6c-0.3,0.1-0.5-0.1-0.7-0.2c-0.1-0.2-0.2-0.4-0.1-0.7
		c0.1-0.2,0.3-0.2,0.5-0.3C32.8,70.8,33.1,71.1,33.2,71.4L33.2,71.4z"/>
	<path class="st5" d="M92.9,71.7c0,0.3-0.1,0.4-0.2,0.6c-0.2,0.2-0.5,0.3-0.7,0.1c-0.2,0-0.3-0.3-0.4-0.5c-0.2-0.3,0.1-0.4,0.2-0.7
		C92.2,71.1,92.8,71.2,92.9,71.7L92.9,71.7z"/>
	<path class="st5" d="M94.4,71.7c0,0.2,0.1,0.3,0.1,0.5c-0.2,0.2-0.3,0.6-0.7,0.4c-0.2,0.1-0.3-0.2-0.4-0.3c-0.1-0.3,0-0.8,0.4-0.9
		C94,71.3,94.2,71.6,94.4,71.7L94.4,71.7z"/>
	<path class="st5" d="M32,72.6c0.1,0.4-0.1,0.7-0.3,0.9c-0.4,0.1-0.8,0.1-0.9-0.4c0-0.3,0-0.8,0.4-1C31.5,72.2,31.9,72.2,32,72.6
		L32,72.6z"/>
	<path class="st5" d="M33.9,72.5c-0.1,0.9-0.3,2-1.2,2.6c-0.5,0.1-1,0.6-1.6,0.3v-0.2C31.8,74.2,33.1,73.4,33.9,72.5L33.9,72.5z"/>
	<path class="st5" d="M87.8,73.2c0.1,0.2-0.1,0.4-0.2,0.5c-0.2,0.2-0.6,0.1-0.8,0c-0.2-0.1-0.3-0.4-0.2-0.7c0.1-0.2,0.3-0.3,0.4-0.4
		C87.4,72.8,87.7,73,87.8,73.2L87.8,73.2z"/>
	<path class="st5" d="M37.1,74.8c0.5,0.8,0.2,1.8,0.5,2.6c-0.6,0.1-0.8-0.6-1.1-0.9c-0.7-1-0.6-2.3-0.9-3.4c0.1-0.1,0.2-0.1,0.2-0.1
		c0.5,0.3,0.8,1,1.2,1.4C36.9,74.6,37.2,74.6,37.1,74.8L37.1,74.8z"/>
	<path class="st5" d="M89.5,73.5c0,0.3-0.3,0.3-0.5,0.5c-0.2,0-0.4-0.1-0.6-0.3c-0.1-0.3,0.2-0.4,0.3-0.6C89,73,89.4,73.1,89.5,73.5
		L89.5,73.5z"/>
	<path class="st5" d="M93.3,76.4c0,0.1,0,0.3-0.2,0.2H93c-0.9-0.9-1.9-1.8-1.8-3.1l0.2,0C92.3,74.3,93.3,75.1,93.3,76.4L93.3,76.4z"
		/>
	<path class="st5" d="M90.9,75.4c0,0.3-0.1,0.5-0.3,0.6c-0.4,0.1-0.9,0.1-1-0.4c0-0.3,0.3-0.5,0.5-0.7
		C90.5,74.8,90.8,75.1,90.9,75.4L90.9,75.4z"/>
	<path class="st5" d="M88.7,76.1c-0.5,1.2-1.7,1.8-2.5,2.8c-0.2-0.1-0.1-0.4-0.1-0.5c0.3-1.2,1.3-2.5,2.5-3
		C89.2,75.4,88.6,75.8,88.7,76.1L88.7,76.1z"/>
	<path class="st5" d="M91.2,77c0,0.3-0.3,0.4-0.5,0.6c-0.3,0-0.5-0.1-0.7-0.4c0-0.3,0.2-0.4,0.4-0.6C90.8,76.6,91.1,76.8,91.2,77
		L91.2,77z"/>
	<path class="st5" d="M67,17.5c0.4,0,0.8,0.4,0.8,0.8c0,0.4-0.4,0.8-0.8,0.8h-9.7c-0.4,0-0.8-0.4-0.8-0.8c0-0.4,0.4-0.8,0.8-0.8H67
		L67,17.5z M60.1,18.9c0.9,0,0.1-1.1-0.5-1.1h-0.9c-0.9,0-0.1,1.1,0.5,1.1H60.1L60.1,18.9z M64.1,18.9c0.9,0,0.1-1.1-0.5-1.1h-0.9
		c-0.9,0-0.1,1.1,0.5,1.1H64.1L64.1,18.9z M67,17.8h-0.4c-0.9,0-0.1,1.1,0.4,1.1C67.6,18.9,67.7,17.8,67,17.8L67,17.8z"/>
	<path class="st5" d="M66.1,28.6l1.8,0.7l1.8-0.7L69,31.3l1.4-0.3L70,32.7l0.5,1.6l-1.3-0.3l0.6,2.9L68,36.1l-1.8,0.7l0.8-2.9
		l-1.5,0.4l0.4-1.6l-0.4-1.6l1.4,0.2L66.1,28.6L66.1,28.6z M68.8,33.5c0.4,0,0.5-0.6,0.5-1.1c0-1.1-0.9,0-1.3-1.1
		c-0.3,0.9-1.2,0.1-1.2,1c0,0.7,0,1.1,0.6,1.1H68.8L68.8,33.5z M67,32.5c0,0.4,0.6,0.1,1,0.1c0.4,0,1,0.3,1-0.1c0-0.6-0.6-0.4-1-0.4
		C67.6,32.1,67,31.9,67,32.5L67,32.5z"/>
	<polygon class="st5" points="61.8,32.6 61.8,32.2 61.5,32.2 61.7,31.9 61.6,31.6 61.9,31.7 62.1,31.3 62.3,31.7 62.6,31.6 
		62.4,31.9 62.7,32.2 62.4,32.2 62.4,32.6 62.1,32.4 61.8,32.6 	"/>
	<polygon class="st5" points="60.4,34.4 60.4,34.1 60,34 60.3,33.8 60.1,33.5 60.5,33.5 60.7,33.2 60.8,33.5 61.2,33.5 61,33.8 
		61.3,34 60.9,34.1 60.9,34.4 60.7,34.2 60.4,34.4 	"/>
	<polygon class="st5" points="62.8,34.2 62.8,33.8 62.5,33.8 62.7,33.5 62.6,33.3 62.9,33.3 63.1,33 63.3,33.3 63.6,33.3 63.4,33.5 
		63.7,33.8 63.4,33.8 63.4,34.2 63.1,34 62.8,34.2 	"/>
	<polygon class="st5" points="63.1,35.6 63.1,35.4 62.9,35.3 63,35.2 63,35 63.1,35.1 63.2,34.9 63.3,35.1 63.5,35 63.4,35.2 
		63.6,35.3 63.4,35.4 63.4,35.6 63.2,35.4 63.1,35.6 	"/>
	<polygon class="st5" points="60.8,37.1 60.8,36.6 60.3,36.5 60.7,36 60.4,35.5 61,35.6 61.3,35 61.6,35.6 62.2,35.5 61.9,36 
		62.3,36.5 61.8,36.6 61.8,37.1 61.3,36.8 60.8,37.1 	"/>
	<polygon class="st5" points="62,6.2 63.1,9 66,8.2 64.5,10.8 67,12.6 64,13.1 64.2,16.1 62,14.1 59.7,16.1 59.9,13.1 56.9,12.6 
		59.4,10.8 57.9,8.2 60.8,9 62,6.2 	"/>
	<path class="st5" d="M51.5,69.5c-0.3,0.1-0.5,0.2-0.4,0.6l0.4,1.7c0.1,0.3,0.1,0.8-0.1,1.1c-0.3,0.4-0.8,0.6-1.2,0.7
		c-0.3,0.1-0.9,0.2-1.4,0c-0.3-0.1-0.5-0.3-0.7-0.9l-0.4-1.8c-0.1-0.5-0.3-0.4-0.6-0.4l0-0.1l2.2-0.5l0,0.1
		c-0.4,0.1-0.6,0.2-0.5,0.6l0.4,1.8c0.1,0.3,0.3,1.1,1.2,0.8c1.1-0.3,1-1.1,0.9-1.5l-0.4-1.7c-0.1-0.3-0.2-0.5-0.8-0.4l0-0.1
		l1.4-0.3L51.5,69.5L51.5,69.5z"/>
	<path class="st5" d="M54.7,69.8c-0.2-0.4-0.7-0.9-1.5-0.7c-0.3,0.1-0.7,0.3-0.6,0.7c0.1,0.3,0.2,0.4,0.8,0.5l1,0.2
		c0.2,0,0.8,0.2,0.9,0.8c0.1,0.5-0.2,1.2-1.4,1.5c-0.6,0.1-0.9,0-1.1,0.1c-0.1,0-0.1,0.1-0.2,0.2l-0.2,0l-0.3-1.3l0.2,0
		c0.3,0.5,0.8,1.1,1.6,0.9c0.8-0.2,0.7-0.7,0.7-0.8c-0.1-0.4-0.4-0.4-0.9-0.5l-0.5-0.1c-1.2-0.2-1.3-0.7-1.4-0.9
		c-0.1-0.3,0-1.1,1.2-1.4c0.5-0.1,0.9,0,1.1,0c0.1,0,0.2-0.1,0.2-0.2l0.2,0l0.3,1.2L54.7,69.8L54.7,69.8z"/>
	<path class="st5" d="M59,72l-2.4,0.2l0-0.1c0.5-0.1,0.6-0.1,0.6-0.6l-0.3-2.9c-0.5,0.1-1.1,0.2-1.2,1.1l-0.2,0l-0.1-1.1l4-0.4
		l0.1,1.1l-0.2,0c-0.2-0.9-0.9-0.8-1.4-0.8l0.3,2.9c0,0.5,0.2,0.5,0.7,0.4L59,72L59,72z"/>
	<path class="st5" d="M64.5,72l-1.4,0l-1.3-1.8l-0.2,0l0,1.1c0,0.4,0.1,0.5,0.6,0.5l0,0.1l-2.2,0l0-0.1c0.5,0,0.6-0.1,0.6-0.5l0-2.5
		c0-0.5-0.2-0.5-0.6-0.5l0-0.1l2.1,0c0.5,0,1.9,0.1,1.9,1c0,0.7-0.7,0.8-1.1,0.9l1.3,1.6c0.1,0.1,0.2,0.1,0.3,0.1L64.5,72L64.5,72z
		 M61.6,70c0.9,0,1.2-0.1,1.2-0.8c0-0.6-0.3-0.8-0.8-0.8c-0.4,0-0.4,0.1-0.4,0.2L61.6,70L61.6,70z"/>
	<path class="st5" d="M68.9,72.5l-2.1-0.3l0-0.1c0.4,0,0.5,0,0.6-0.1c0-0.1-0.1-0.6-0.2-0.8L65.6,71c-0.2,0.4-0.4,0.6-0.4,0.7
		c0,0.2,0.3,0.3,0.5,0.3l0,0.1L64.4,72l0-0.1c0.4,0,0.5-0.2,0.7-0.6l1.8-2.8l0.2,0l1.1,3.1c0.2,0.6,0.3,0.8,0.6,0.9L68.9,72.5
		L68.9,72.5z M67,71l-0.5-1.4l-0.8,1.3L67,71L67,71z"/>
	<path class="st5" d="M72.7,73.3L69,72.6l0-0.1c0.4,0,0.6,0,0.6-0.3l0.5-2.7c0.1-0.4-0.2-0.4-0.5-0.5l0-0.1l2.3,0.4l0,0.1
		c-0.5-0.1-0.7-0.1-0.8,0.4l-0.5,2.6c0,0.3,0.1,0.3,0.5,0.4c1,0.2,1.4-0.2,1.8-0.8l0.2,0L72.7,73.3L72.7,73.3z"/>
	<path class="st5" d="M75.2,73.9L73,73.4l0-0.1c0.4,0,0.6,0.1,0.7-0.3l0.5-2.6c0.1-0.4-0.2-0.4-0.5-0.5l0-0.1l2.3,0.5l0,0.1
		c-0.3-0.1-0.6-0.1-0.7,0.3l-0.5,2.6c-0.1,0.3,0.2,0.4,0.5,0.5L75.2,73.9L75.2,73.9z"/>
	<path class="st5" d="M79.9,74.5l-2.1-0.2l0-0.1c0.4,0,0.5,0,0.6-0.2c0-0.1-0.2-0.6-0.2-0.8L76.6,73c-0.2,0.4-0.4,0.6-0.4,0.7
		c0,0.2,0.3,0.3,0.5,0.3l0,0.1L75.4,74l0-0.1c0.4,0,0.5-0.2,0.7-0.6l1.8-2.9l0.2,0l1.2,3.1c0.2,0.6,0.3,0.8,0.6,0.8L79.9,74.5
		L79.9,74.5z M78,72.9l-0.5-1.4l-0.8,1.3L78,72.9L78,72.9z"/>
	<path class="st5" d="M62.9,29.5c0-1.3-0.8-0.1-1.2-1.2c-0.3,1-1.2,0.2-1.2,1.2c0,0.4,0.1,0.6,0.3,0.8v0.4c0,0.1,0.1,0.2,0.2,0.2
		h1.4c0.1,0,0.2-0.1,0.2-0.2v-0.4C62.8,30,62.9,29.8,62.9,29.5L62.9,29.5z M61.7,29.7c-0.4,0-0.9,0.3-0.9-0.2c0-0.7,0.4-0.5,0.8-0.5
		c0.4,0,1-0.1,1,0.5C62.6,30,62.1,29.7,61.7,29.7L61.7,29.7z"/>
	<path class="st5" d="M74.5,45.9c0.3,0,0.6-0.2,0.6-0.5c0-0.3-0.3-0.5-0.6-0.5c-0.3,0-0.6,0.2-0.6,0.5
		C73.9,45.7,74.2,45.9,74.5,45.9L74.5,45.9z"/>
	<path class="st5" d="M71.6,26.1c0,0-0.3,0.5-0.3,0.6c0,0.2,0.1,0.3,0.3,0.3c0.2,0,0.3-0.1,0.3-0.3C71.9,26.7,71.6,26.1,71.6,26.1
		L71.6,26.1z"/>
	<path class="st5" d="M52,26.1c0,0-0.3,0.5-0.3,0.6c0,0.2,0.1,0.3,0.3,0.3c0.2,0,0.3-0.1,0.3-0.3C52.3,26.7,52,26.1,52,26.1L52,26.1
		z"/>
	<path class="st5" d="M56.9,26.1c0,0-0.3,0.5-0.3,0.6c0,0.2,0.1,0.3,0.3,0.3c0.2,0,0.3-0.1,0.3-0.3C57.2,26.7,56.9,26.1,56.9,26.1
		L56.9,26.1z"/>
	<path class="st5" d="M61.8,26.1c0,0-0.3,0.5-0.3,0.6c0,0.2,0.1,0.3,0.3,0.3c0.2,0,0.3-0.1,0.3-0.3C62.1,26.7,61.8,26.1,61.8,26.1
		L61.8,26.1z"/>
	<path class="st5" d="M66.7,26.1c0,0-0.3,0.5-0.3,0.6c0,0.2,0.1,0.3,0.3,0.3c0.2,0,0.3-0.1,0.3-0.3C67,26.7,66.7,26.1,66.7,26.1
		L66.7,26.1z"/>
	<path class="st5" d="M52,32.8c0,0,0.3,0.5,0.3,0.6c0,0.2-0.1,0.3-0.3,0.3c-0.2,0-0.3-0.1-0.3-0.3C51.7,33.4,52,32.8,52,32.8
		L52,32.8z"/>
	<path class="st5" d="M52,39.4c0,0,0.3,0.5,0.3,0.6c0,0.2-0.1,0.3-0.3,0.3c-0.2,0-0.3-0.1-0.3-0.3C51.7,40,52,39.4,52,39.4L52,39.4z
		"/>
	<path class="st5" d="M52.8,44.6c0,0,0.3,0.5,0.3,0.6c0,0.2-0.1,0.3-0.3,0.3c-0.2,0-0.3-0.1-0.3-0.3C52.5,45.2,52.8,44.6,52.8,44.6
		L52.8,44.6z"/>
	<path class="st5" d="M56.9,47.3c0,0,0.3,0.5,0.3,0.6c0,0.2-0.1,0.3-0.3,0.3c-0.2,0-0.3-0.1-0.3-0.3C56.6,47.9,56.9,47.3,56.9,47.3
		L56.9,47.3z"/>
	<path class="st5" d="M71.9,32.8c0,0-0.3,0.5-0.3,0.6c0,0.2,0.1,0.3,0.3,0.3c0.2,0,0.3-0.1,0.3-0.3C72.2,33.4,71.9,32.8,71.9,32.8
		L71.9,32.8z"/>
	<path class="st5" d="M71.9,39.4c0,0-0.3,0.5-0.3,0.6c0,0.2,0.1,0.3,0.3,0.3c0.2,0,0.3-0.1,0.3-0.3C72.2,40,71.9,39.4,71.9,39.4
		L71.9,39.4z"/>
	<path class="st5" d="M71.1,44.6c0,0-0.3,0.5-0.3,0.6c0,0.2,0.1,0.3,0.3,0.3c0.2,0,0.3-0.1,0.3-0.3C71.4,45.2,71.1,44.6,71.1,44.6
		L71.1,44.6z"/>
	<path class="st5" d="M67,47.3c0,0-0.3,0.5-0.3,0.6c0,0.2,0.1,0.3,0.3,0.3c0.2,0,0.3-0.1,0.3-0.3C67.3,47.9,67,47.3,67,47.3L67,47.3
		z"/>
	<path class="st5" d="M62,50.3c0,0-0.3,0.5-0.3,0.6c0,0.2,0.1,0.3,0.3,0.3c0.2,0,0.3-0.1,0.3-0.3C62.3,50.8,62,50.3,62,50.3L62,50.3
		z"/>
	<path class="st5" d="M70,40.5c0.1,0.1,0.2,0.1,0.4,0.1l0.2-0.5c0,0-0.2-0.2-0.4-0.2c-0.5,0.1-1.1,0.2-1.4,0.7
		c0,0.3,0.2,0.7,0.5,0.8c0.2-0.1,0.2,0.1,0.3,0.2c0,0.2-0.1,0.3-0.2,0.3c-0.4-0.4-1,0.1-1.3-0.3c0.1-0.5,0.4-1,0-1.4
		c0-0.1,0.2-0.2,0.1-0.3c-0.2-0.4-0.6-0.1-0.9-0.1c-0.5-0.1-0.8,0.2-1.1,0.6c0,0.2,0.1,0.3,0.2,0.5c0.1,0,0.2,0,0.2,0.1L66.3,41
		c0.1,0.1,0.1,0.2,0.1,0.3c-0.2,0.1-0.4-0.2-0.5-0.4c0-0.2,0-0.7-0.3-0.7c-0.1,0-0.3,0.1-0.3,0.1c-0.1,0.1-0.1,0.3-0.1,0.5
		c0,0.2,0.1,0.6,0.1,0.6s1,0.7,1.2,1.1c-0.3,0.6-0.3,1.3-0.9,1.7c-0.2,0.1-0.2,0.3-0.2,0.5l0.2,0.1c0.4-0.2,1.2-0.3,1.1-1
		c0.2-0.3,0.3-0.6,0.6-0.8c0.3-0.1,0.6,0.1,0.7,0.3c-0.1,0.5-0.4,0.8-0.8,0.9c-0.1,0.1,0,0.2,0,0.2c0.1,0.2,0.5,0.1,0.6,0.1
		c0.5-0.3,0.7-1,1.2-1.2c0.1,0.3-0.6,0.4-0.2,0.7c0.3-0.1,0.6,0,0.8-0.3c-0.2-0.5,0.7-0.8,0.2-1.2c0-0.5,0.5-0.7,0.5-1.2
		c-0.2-0.5-0.8-0.5-0.9-1C69.5,40.4,69.8,40.4,70,40.5L70,40.5z"/>
	<path class="st5" d="M47.4,46.2c0.3,0,0.6-0.2,0.6-0.5c0-0.3-0.3-0.5-0.6-0.5c-0.3,0-0.6,0.2-0.6,0.5C46.8,45.9,47,46.2,47.4,46.2
		L47.4,46.2z"/>
	<path class="st5" d="M15.5,64.8c0.3,0,0.6-0.3,0.6-0.6c0-0.3-0.3-0.6-0.6-0.6c-0.3,0-0.6,0.3-0.6,0.6
		C14.9,64.5,15.1,64.8,15.5,64.8L15.5,64.8z"/>
	<path class="st5" d="M35.8,69.3L35.8,69.3L35.8,69.3L35.8,69.3L35.8,69.3C35.7,69.3,35.7,69.3,35.8,69.3L35.8,69.3h-0.1v0
		c0,0,0,0,0,0v-0.1c0,0,0,0,0,0v0h0.1C35.7,69.2,35.8,69.2,35.8,69.3C35.8,69.3,35.7,69.3,35.8,69.3L35.8,69.3
		C35.8,69.3,35.8,69.3,35.8,69.3L35.8,69.3L35.8,69.3z M35.7,69.3C35.7,69.3,35.7,69.3,35.7,69.3C35.7,69.2,35.7,69.2,35.7,69.3
		C35.7,69.2,35.7,69.2,35.7,69.3L35.7,69.3L35.7,69.3z"/>
	<path class="st5" d="M35.9,69.2C35.9,69.2,35.8,69.2,35.9,69.2C35.8,69.2,35.8,69.2,35.9,69.2C35.8,69.2,35.8,69.2,35.9,69.2
		L35.9,69.2C35.9,69.3,35.9,69.3,35.9,69.2C35.9,69.3,35.9,69.3,35.9,69.2C35.8,69.3,35.8,69.3,35.9,69.2
		C35.8,69.3,35.8,69.3,35.9,69.2L35.9,69.2L35.9,69.2L35.9,69.2C35.8,69.3,35.8,69.3,35.9,69.2C35.8,69.3,35.9,69.3,35.9,69.2
		C35.9,69.3,35.8,69.3,35.9,69.2L35.9,69.2C35.8,69.3,35.8,69.2,35.9,69.2C35.8,69.2,35.8,69.2,35.9,69.2
		C35.8,69.2,35.9,69.2,35.9,69.2C35.9,69.2,35.9,69.2,35.9,69.2L35.9,69.2L35.9,69.2L35.9,69.2L35.9,69.2z"/>
	<path class="st5" d="M36.1,69.2C36.1,69.2,36.1,69.2,36.1,69.2L36,69.3h0L36.1,69.2L36.1,69.2l-0.1,0.1h0l0-0.1c0,0,0,0,0,0v0h0.1
		v0c0,0,0,0,0,0c0,0,0,0,0,0l0,0.1h0L36.1,69.2l-0.1,0c0,0,0,0,0,0v0L36.1,69.2L36.1,69.2C36,69.2,36,69.2,36.1,69.2
		C36,69.2,36,69.2,36.1,69.2L36.1,69.2L36.1,69.2L36.1,69.2C36,69.2,36,69.2,36.1,69.2C36,69.2,36,69.2,36.1,69.2L36.1,69.2
		L36.1,69.2L36.1,69.2L36.1,69.2z"/>
	<path class="st5" d="M36.1,69.3C36.1,69.3,36.1,69.3,36.1,69.3C36.1,69.3,36.1,69.3,36.1,69.3C36.1,69.3,36.1,69.3,36.1,69.3
		C36.1,69.3,36.1,69.3,36.1,69.3c0-0.1,0-0.1,0-0.1C36.1,69.2,36.2,69.2,36.1,69.3C36.2,69.3,36.1,69.3,36.1,69.3L36.1,69.3
		L36.1,69.3z M36.1,69.3C36.1,69.3,36.1,69.3,36.1,69.3C36.1,69.3,36.1,69.3,36.1,69.3C36.1,69.2,36.1,69.2,36.1,69.3
		C36.1,69.2,36.1,69.2,36.1,69.3C36.1,69.3,36.1,69.3,36.1,69.3L36.1,69.3z"/>
	<path class="st5" d="M36.2,69.2C36.2,69.2,36.2,69.2,36.2,69.2C36.2,69.2,36.2,69.3,36.2,69.2C36.2,69.3,36.2,69.3,36.2,69.2
		C36.2,69.3,36.2,69.3,36.2,69.2C36.2,69.3,36.2,69.3,36.2,69.2C36.2,69.3,36.2,69.3,36.2,69.2C36.2,69.3,36.2,69.3,36.2,69.2
		C36.2,69.3,36.2,69.3,36.2,69.2C36.2,69.3,36.2,69.3,36.2,69.2L36.2,69.2L36.2,69.2L36.2,69.2L36.2,69.2L36.2,69.2L36.2,69.2z"/>
	<path class="st5" d="M73.3,25.3L73.3,25.3l-22.7,0v0h0l0,17.3c0,1.8,0.7,3.3,1.8,3.8l8.7,5.5c0.2,0.2,0.5,0.4,0.8,0.4
		c0.3,0,0.5-0.1,0.7-0.3l8.9-5.6c1-0.5,1.8-2,1.8-3.8L73.3,25.3L73.3,25.3L73.3,25.3z M72.6,42.9c-0.1,1.3-0.6,2.4-1.5,3l-8.6,5.4h0
		c-0.2,0.1-0.4,0.2-0.7,0.2c-0.3,0-0.5-0.1-0.7-0.2l-8.5-5.4c-0.9-0.6-1.4-1.7-1.5-3v-17h21.4V42.9L72.6,42.9z"/>
	<path class="st5" d="M65,50.6l0.3-0.1C65.2,50.5,65.1,50.5,65,50.6L65,50.6z"/>
	<path class="st5" d="M47.9,74.3l-2.1,0.2l0-0.1c0.4-0.1,0.5-0.1,0.5-0.3c0-0.2-0.3-0.5-0.4-0.7l-1.5,0.2c-0.1,0.4-0.2,0.7-0.2,0.7
		c0,0.2,0.3,0.2,0.6,0.2l0,0.1l-1.3,0.2l0-0.1c0.4-0.1,0.4-0.3,0.6-0.7l1.1-3.2l0.2,0l1.8,2.7c0.4,0.6,0.5,0.7,0.8,0.7L47.9,74.3
		L47.9,74.3z M45.7,73.2l-0.8-1.3l-0.5,1.4L45.7,73.2L45.7,73.2z"/>
	<path class="st5" d="M85.5,66.2c-0.4-1-1.2-1.7-2.2-2c-1-0.2-2.1-0.1-2.8,0.7c-1.2,1-0.4,2.5-0.3,3.8c0,0.3,0,0.5-0.2,0.6
		c-4.7-0.4-9.1-1.6-13.8-2.1C65,67,63.9,67,62.9,66.8l-1.3-0.1c-4.1,0.1-8.1,0.4-12,1.3c-0.8,0.3-1.7,0.3-2.5,0.6
		c-0.6-0.1-1.1,0.3-1.6,0.2L44.4,69c-0.1,0-0.2,0-0.4,0c-0.5-1.3,1-2.2,0.6-3.5c-0.4-0.8-1.3-1.5-2.2-1.3c-1.1-0.1-2.1,0.5-2.6,1.3
		c-0.7,1.6,0.2,3.3,0.5,5c-0.1,0.5,0.5,1.1,0,1.5c-1-0.7-2.4-1.1-3.7-0.8c-0.4,0.2-1.1-0.1-1.3,0.4c1.4,0.8,3.2,0.7,4.8,0.6
		c0.2-0.1,0.3-0.1,0.5,0c0.1,0.9-0.2,2,0.4,2.8c0.6,0.8,1.6,1,2.5,1.1c3-0.1,5.7-1,8.4-1.7c0.4,0,0.7-0.3,1.2-0.3
		c1.5-0.3,3.1-0.6,4.6-0.6c-0.7,0.9-1.1,1.9-1.4,3c-0.4,0.9,0.7,1,1,1.5c-1,0.3-1.7,1-2.7,1.4c-2.1-0.1-3.8,0.7-5.8,1
		c0,0.4,0.7,0.3,0.7,0.7c-0.1,0.3-0.4,0.3-0.6,0.5c0,0.2,0,0.2,0.2,0.3c0.2-0.2,0.6-0.1,0.8-0.3c0.7,0,1.2-0.2,1.8-0.2
		c0.6-0.2,1.2-0.3,1.7-0.7c0.7-0.2,1.1-0.7,1.8-0.9c1,0,1.9-0.3,2.8-0.4v0.2c-0.7,1.2-1.5,2.5-2.3,3.6c-0.1,0.2,0,0.5,0.2,0.5
		c0.5,0.1,0.9,0,1.3-0.2c0.7-1.2,1.3-2.3,1.9-3.5c0.2-1.1,1-1.7,1.9-2.5c0.1-0.1,0.3-0.3,0.5-0.1c-0.7,0.8-1.1,1.5-1.6,2.3
		c-0.3,0.9-0.3,2.1,0.5,2.9c0.4,0.3,1,0.2,1.5,0.3c1.3-0.7,2.9,0.4,3.9-0.9c0.6-0.1,0.7,0.6,1,0.9c0.6,0.2,1.1,0.7,1.7,0.3
		c0-0.4-0.4-0.7-0.6-1c-0.4-0.7-0.9-1.2-1.2-1.9c-0.2-0.5-0.5-0.8-0.5-1.2c0.6,0.2,1.1,0.6,1.8,0.7c0.6,0.2,1.2,0.2,1.8,0.5
		c0.4,0.6,1.1,0.9,1.6,1.2c0.8,0.4,1.7,0.5,2.6,0.8c0.3,0,0.8,0.3,1,0c-0.1-0.2-0.3-0.3-0.5-0.4c-0.1-0.4,0.6-0.2,0.8-0.5
		c-0.1-0.2-0.2-0.2-0.4-0.2c-0.5-0.2-1.6-0.3-1.9-0.5c-0.4-0.1-0.7-0.2-1.1-0.4c-2,0-3-1.8-4.6-2.4c0.4-0.3,0.9-0.6,1.1-1.1
		c0.3-0.5,0.4-1.2,0.1-1.7c-0.3-1-1.6-0.9-2.3-1.4l0.1-0.1c1.3-0.1,2.4,0.2,3.5,0.5c3.1,0.4,6,1.6,9.3,1.7c1.8,0,4,0.1,4.9-1.6
		c0.2-1,0.4-2,0.5-3.1C84.5,69.5,85.6,68,85.5,66.2L85.5,66.2z M50.3,81.1l-0.5-0.4c0.2-0.3,0.7-0.1,1.1-0.3
		c0.8-0.3,1.8-0.6,2.8-0.4C52.7,80.8,51.4,80.9,50.3,81.1L50.3,81.1z M70.6,80.6c0.8,0.4,2.3,0.7,3.5,0.8c-0.1,0.4-0.9,0-0.8,0.7
		c-1-0.4-2.2-0.6-2.9-1.4C70.4,80.7,70.5,80.6,70.6,80.6L70.6,80.6z M40.1,66.7c0.1-0.6,0.2-1.2,0.8-1.6c0.8-0.4,1.9-0.3,2.6,0.1
		c0.2,0.1,0.4,0.3,0.5,0.6c0.2,0.6-0.1,1.1-0.5,1.5h-0.3c0-0.5,0-1,0.2-1.5c0-0.4-0.4-0.4-0.6-0.6c-0.6-0.2-1,0.1-1.5,0.3
		c-0.3,0.4-0.6,0.9-0.4,1.4c0.2,0.4,0,0.9,0.2,1.2l-0.1,0.1C40.5,67.9,40,67.4,40.1,66.7L40.1,66.7z M41.6,67.6
		c0.5,0.4,1.2,0.2,1.8,0.3c0.1,0.4,0.1,0.8-0.2,1.1c-0.6-0.1-1.3-0.1-1.6-0.6C41.7,68.2,41.5,67.9,41.6,67.6L41.6,67.6z M41.5,66.5
		c0.1-0.3,0-0.7,0.4-0.7c0.2-0.1,0.6-0.1,0.6,0.2c0,0.4-0.1,0.8-0.2,1.1C41.9,67.1,41.6,66.9,41.5,66.5L41.5,66.5z M56.8,77
		c-0.2-1.1,0.3-2.1,1-3c0.5-0.1,1-0.2,1.4,0.1c-0.8,0.2-1.9,0.4-2.1,1.5c0,0.4-0.1,0.7,0.1,1c0.4,0.6,1.2,0.4,1.6,0.9
		c0,0.2-0.1,0.4-0.3,0.4C58,77.6,57.3,77.4,56.8,77L56.8,77z M55.6,79.3c0.8-0.3,1.6-1,2.5-0.7C57.5,79.1,56.4,79.2,55.6,79.3
		L55.6,79.3z M58.7,79.6c-0.5,1-1,2.1-1.6,3.1c-0.1,0.2-0.3,0.2-0.5,0.2c0-0.5,0.5-0.8,0.7-1.2c0.7-0.9,0.9-1.8,1.7-2.7
		C59.1,79.2,58.7,79.3,58.7,79.6L58.7,79.6z M59.5,77.7v0.1h-0.1L59.5,77.7L59.5,77.7L59.5,77.7C59.5,77.7,59.5,77.7,59.5,77.7
		L59.5,77.7L59.5,77.7z M59.2,76.8c-0.6-0.1-1.1-0.2-1.6-0.4c-0.3-0.3,0-0.7,0-1.1c0.5-0.7,1.8-1.1,2.4-0.4
		C59.9,75.7,59.7,76.3,59.2,76.8L59.2,76.8z M59.9,76.8c0.1-0.4,0.3-1,0.5-1.4C60.4,75.9,60.2,76.5,59.9,76.8L59.9,76.8z M60.3,74.2
		c-0.4-0.1-0.7-0.6-1.1-0.6c0.4-0.1,0.8-0.1,1.2,0C60.6,73.8,60.3,74,60.3,74.2L60.3,74.2z M60.7,75.1L60.7,75.1l0-0.4h0V75.1
		L60.7,75.1z M60.7,76.7c0-0.1,0.1-0.3,0.1-0.5c0.2-0.2,0.3,0.1,0.4,0.2C61.1,76.6,60.9,76.7,60.7,76.7L60.7,76.7z M61.2,74.6
		c0.2-0.5,0.2-0.9,0.5-1.2c0.3,0,0.6,0,0.9,0.1c0.1,0.7,0.9,1.5,0,2.1c-0.3,0.1-0.7,0.4-1,0.1C61.1,75.4,61,75.1,61.2,74.6
		L61.2,74.6z M63.6,73.7c-0.1-0.3,0.3-0.1,0.4-0.2l1,0.1C64.5,73.5,63.8,74.7,63.6,73.7L63.6,73.7z M65.2,74.1
		c-0.4,0.1-0.7,0.6-1.1,0.7C64.3,74.5,64.8,74.1,65.2,74.1L65.2,74.1z M63.8,76.2L63.8,76.2L63.8,76.2L63.8,76.2L63.8,76.2
		L63.8,76.2z M63.9,78.2c0,0.1,0,0.2-0.1,0.2l-0.7-0.6C63.4,77.7,63.7,77.9,63.9,78.2L63.9,78.2z M63,77.1c0.1-0.1,0.2-0.1,0.3,0H63
		L63,77.1z M62.6,76.7c0.1-0.2,0.3-0.5,0.5-0.5c0,0,0,0.1,0.1,0.1C63,76.4,62.8,76.6,62.6,76.7L62.6,76.7z M61.8,76.6h-0.1l0.2-0.2
		C62,76.5,61.8,76.5,61.8,76.6L61.8,76.6z M61.9,77.8c0.4-0.5,0.8,0.3,1,0.6c0.5,0.7,1.8,1.4,1.3,2.4c-0.6,0.6-1.6,0-2.3,0.5
		c-0.4,0-1,0.1-1.2-0.3C61.1,79.9,61.4,78.8,61.9,77.8L61.9,77.8z M61,78.5l0.2-0.3c-0.3,0.8-0.7,1.6-1.1,2.4
		C59.9,79.8,60.7,79.1,61,78.5L61,78.5z M62.4,82.4c-0.6,0-1.6,0.4-2.1-0.1c0-0.3-0.3-0.4-0.2-0.7c0.5-0.2,1,0.4,1.5,0
		c0.7,0,1.5-0.1,2.3,0.1c0.4,0.1,0.9-0.6,1,0.1C64.5,82.8,63.2,82,62.4,82.4L62.4,82.4z M64.3,77.6L64.3,77.6L64.3,77.6L64.3,77.6
		L64.3,77.6L64.3,77.6z M64.5,79.7c0,0.3,0.4,0.5,0.2,0.8C64.6,80.3,64.4,80,64.5,79.7L64.5,79.7z M65.4,81.7l-0.2,0.1
		c-0.2-0.1-0.1-0.5-0.1-0.7C65.4,81.2,65.6,81.4,65.4,81.7L65.4,81.7z M67.1,82.5c0,0.1-0.2,0.1-0.3,0c-1-1.2-1.4-2.6-2.1-3.9l0.1,0
		C65.7,79.8,66.3,81.2,67.1,82.5L67.1,82.5z M68.3,79.4c-0.1,0-0.1,0.1-0.1,0.1c-0.9,0-1.6-0.5-2.3-1l0-0.2
		C66.8,78.5,67.5,79,68.3,79.4L68.3,79.4z M67.4,75.1c0.4,0.1,0.4,0.5,0.5,0.9c0,0.7-0.4,1.3-1.1,1.6c-0.4,0.2-0.9,0.3-1.3,0.1
		c0.8,0,1.6-0.3,2-1.1L67.4,75.1L67.4,75.1z M66.7,74.9c0.2,0.5,0.5,0.9,0.3,1.4c-0.3,0.6-1,0.6-1.6,0.8c-0.3,0-0.5-0.1-0.7-0.2
		c0-0.1,0-0.2-0.1-0.3c0.1-0.4-0.7-0.9-0.2-1.2C64.9,74.9,66.1,73.8,66.7,74.9L66.7,74.9z M83.2,72.6c-0.3,0.3,0,0.9-0.4,1.1
		c0,0.6-0.5,0.9-0.9,1.1c-3.9,0.9-7.7-0.5-11.4-1.1c-5.2-1.1-11.4-1.5-16.7-0.3c-2.5,0.5-4.9,1-7.4,1.7c-1.5,0.2-3.1,0.4-4.6,0
		c-1.2-0.6-0.7-2.1-1-3.1c0.1-0.8-0.2-1.5-0.3-2.3c-0.1-0.3-0.2-0.6-0.1-0.9c0.5,0.1,1,0.4,1.5,0.6c2.7,0.5,5.2-0.4,7.7-0.8
		c2.4-0.5,4.9-1,7.5-1.1c2.9,0,5.9-0.2,8.7,0.3c0.9,0,1.7,0.3,2.6,0.3c1.8,0.2,3.5,0.7,5.4,0.9c0.3,0.1,0.7,0.1,1,0.2
		c2.9,0.5,6.2,1.3,9,0C83.9,70.3,83.4,71.4,83.2,72.6L83.2,72.6z M82.3,68.6c0,0.5-0.5,0.4-0.7,0.6h-0.8c-0.2-0.3-0.1-0.7-0.1-0.9
		C81.3,68.3,81.8,68.3,82.3,68.6L82.3,68.6z M82,67.7c0.4-0.4-0.1-2.4,0.9-1.1c0,0.3,0,0.7-0.2,0.9C82.5,67.6,82.2,67.9,82,67.7
		L82,67.7z M84.6,67.4c-0.3,0.6-0.7,1-1.4,1.1c0-0.8,0.7-1.3,0.5-2.2c-0.4-0.6-1.3-0.8-2.1-0.7c-0.3,0.2-0.2,0.5-0.3,0.8l-0.1,1.1
		c-0.7,0-0.7-0.6-0.9-1c0-0.7,0.3-1.4,1-1.7c0.5-0.3,1.4-0.2,1.9,0.1c0.4,0.1,0.9,0.3,1.1,0.7C84.8,66,84.7,66.8,84.6,67.4
		L84.6,67.4z"/>
	<line class="st7" x1="124.7" y1="55.2" x2="329.1" y2="55.2"/>
	<path class="st5" d="M131.7,77.4v0.4h-6.8v-0.4h0.4c0.4,0,0.7-0.1,0.9-0.2c0.2-0.1,0.3-0.2,0.4-0.5c0.1-0.2,0.1-0.6,0.1-1.2v-8.6
		c0-0.7,0-1.1-0.1-1.3c-0.1-0.2-0.2-0.3-0.4-0.4c-0.2-0.1-0.5-0.2-0.9-0.2h-0.4v-0.4h6.8v0.4h-0.4c-0.4,0-0.7,0.1-0.9,0.2
		c-0.2,0.1-0.3,0.2-0.4,0.5c-0.1,0.2-0.1,0.6-0.1,1.2v8.6c0,0.7,0,1.1,0.1,1.3c0.1,0.2,0.2,0.3,0.4,0.4c0.2,0.1,0.5,0.2,0.9,0.2
		H131.7L131.7,77.4z"/>
	<path class="st4" d="M137.8,71.8v3.6c0,0.7,0,1.2,0.1,1.3c0.1,0.2,0.2,0.3,0.5,0.4c0.2,0.1,0.6,0.2,1.2,0.2v0.4H133v-0.4
		c0.6,0,1-0.1,1.2-0.2c0.2-0.1,0.4-0.3,0.5-0.4c0.1-0.2,0.1-0.6,0.1-1.3V67c0-0.7,0-1.1-0.1-1.3c-0.1-0.2-0.2-0.3-0.5-0.4
		c-0.2-0.1-0.6-0.2-1.2-0.2v-0.4h5.7c1.9,0,3.2,0.3,4,1c0.8,0.7,1.2,1.5,1.2,2.5c0,0.8-0.3,1.6-0.8,2.2c-0.5,0.6-1.3,1-2.2,1.2
		C140.4,71.8,139.3,71.8,137.8,71.8L137.8,71.8z M137.8,65.5v5.6c0.2,0,0.4,0,0.5,0c0.8,0,1.4-0.2,1.8-0.7c0.4-0.5,0.6-1.2,0.6-2.2
		c0-1-0.2-1.7-0.6-2.1c-0.4-0.4-1.1-0.7-1.9-0.7H137.8L137.8,65.5z"/>
	<path class="st4" d="M155.5,74h-4.6l-0.5,1.3c-0.2,0.4-0.3,0.8-0.3,1c0,0.4,0.1,0.6,0.4,0.8c0.2,0.1,0.6,0.2,1.3,0.2v0.4h-4.3v-0.4
		c0.5-0.1,0.9-0.3,1.2-0.6c0.3-0.3,0.7-1,1.1-2l4.7-10.4h0.2l4.7,10.7c0.4,1,0.8,1.7,1.1,1.9c0.2,0.2,0.5,0.3,0.9,0.3v0.4H155v-0.4
		h0.3c0.5,0,0.9-0.1,1.1-0.2c0.1-0.1,0.2-0.2,0.2-0.4c0-0.1,0-0.2-0.1-0.4c0-0.1-0.1-0.3-0.3-0.7L155.5,74L155.5,74z M155.2,73.3
		l-1.9-4.5l-2,4.5H155.2L155.2,73.3z"/>
	<path class="st5" d="M169.6,68.8v7c0,0.7,0.1,1.1,0.2,1.3c0.1,0.2,0.4,0.3,0.8,0.3v0.3h-3.7v-1.2c-0.4,0.5-0.9,0.9-1.3,1.1
		c-0.4,0.2-0.9,0.3-1.4,0.3c-0.5,0-1-0.2-1.4-0.5c-0.4-0.3-0.7-0.7-0.8-1.1c-0.1-0.4-0.2-1.1-0.2-2.2v-3.6c0-0.7-0.1-1.1-0.2-1.3
		c-0.1-0.2-0.4-0.3-0.8-0.3v-0.4h3.7v6.1c0,0.6,0,1.1,0.1,1.2c0.1,0.2,0.2,0.3,0.3,0.4c0.1,0.1,0.3,0.1,0.5,0.1
		c0.2,0,0.4-0.1,0.6-0.2c0.3-0.2,0.6-0.5,0.9-1v-4.8c0-0.7-0.1-1.1-0.2-1.3c-0.1-0.2-0.4-0.3-0.8-0.3v-0.4H169.6L169.6,68.8z"/>
	<path class="st5" d="M177.2,68.5l0.1,3.1H177c-0.4-0.9-0.8-1.5-1.2-1.9c-0.4-0.3-0.8-0.5-1.3-0.5c-0.3,0-0.5,0.1-0.7,0.3
		c-0.2,0.2-0.3,0.4-0.3,0.6c0,0.2,0.1,0.3,0.2,0.5c0.2,0.3,0.8,0.7,1.7,1.4c0.9,0.6,1.6,1.2,1.9,1.6c0.3,0.4,0.5,0.9,0.5,1.5
		c0,0.5-0.1,1-0.4,1.5c-0.3,0.5-0.6,0.8-1.1,1.1c-0.5,0.3-1,0.4-1.5,0.4c-0.4,0-1-0.1-1.7-0.4c-0.2-0.1-0.3-0.1-0.4-0.1
		c-0.2,0-0.4,0.2-0.5,0.5h-0.3l-0.2-3.2h0.3c0.3,0.8,0.7,1.5,1.2,1.9c0.5,0.4,1,0.6,1.4,0.6c0.3,0,0.6-0.1,0.8-0.3
		c0.2-0.2,0.3-0.4,0.3-0.7c0-0.3-0.1-0.6-0.3-0.8c-0.2-0.2-0.6-0.6-1.3-1c-1-0.7-1.6-1.2-1.9-1.6c-0.4-0.5-0.6-1.1-0.6-1.7
		c0-0.7,0.2-1.3,0.7-1.9c0.5-0.6,1.2-0.8,2.1-0.8c0.5,0,1,0.1,1.4,0.4c0.2,0.1,0.3,0.1,0.4,0.1c0.1,0,0.2,0,0.3-0.1
		c0.1-0.1,0.2-0.2,0.3-0.4H177.2L177.2,68.5z"/>
	<path class="st5" d="M182.3,65.5v3.3h2.1v1h-2.1v5.6c0,0.5,0,0.9,0.1,1c0.1,0.1,0.1,0.3,0.3,0.4c0.1,0.1,0.2,0.1,0.3,0.1
		c0.4,0,0.8-0.3,1.2-1l0.3,0.2c-0.5,1.2-1.4,1.8-2.5,1.8c-0.6,0-1.1-0.2-1.5-0.5c-0.4-0.3-0.6-0.7-0.8-1.1c-0.1-0.2-0.1-0.8-0.1-1.8
		v-4.9h-1.2v-0.3c0.8-0.6,1.5-1.2,2.1-1.8c0.6-0.6,1.1-1.3,1.5-2.1H182.3L182.3,65.5z"/>
	<path class="st5" d="M189,68.8v2c0.6-0.9,1.1-1.5,1.6-1.8c0.4-0.3,0.9-0.5,1.3-0.5c0.4,0,0.6,0.1,0.9,0.3c0.2,0.2,0.3,0.5,0.3,0.9
		c0,0.4-0.1,0.8-0.3,1c-0.2,0.2-0.5,0.4-0.8,0.4c-0.3,0-0.6-0.1-0.9-0.3c-0.3-0.2-0.4-0.3-0.4-0.4c-0.1,0-0.1-0.1-0.2-0.1
		c-0.2,0-0.4,0.1-0.5,0.2c-0.3,0.2-0.5,0.5-0.6,0.9c-0.2,0.6-0.3,1.3-0.3,2.1v2.1l0,0.5c0,0.4,0,0.6,0.1,0.7
		c0.1,0.2,0.2,0.3,0.3,0.4c0.2,0.1,0.4,0.1,0.8,0.1v0.3h-4.9v-0.3c0.4,0,0.7-0.1,0.8-0.3c0.1-0.2,0.2-0.7,0.2-1.5v-5
		c0-0.5,0-0.8-0.1-1c-0.1-0.2-0.2-0.3-0.3-0.4c-0.1-0.1-0.3-0.1-0.6-0.2v-0.4H189L189,68.8z"/>
	<path class="st4" d="M198.4,76.4c-1.1,1-2.1,1.5-3,1.5c-0.5,0-0.9-0.2-1.3-0.5c-0.3-0.3-0.5-0.8-0.5-1.3c0-0.7,0.3-1.3,0.9-1.8
		c0.6-0.6,1.9-1.3,3.9-2.2v-0.9c0-0.7,0-1.1-0.1-1.3c-0.1-0.2-0.2-0.3-0.4-0.5c-0.2-0.1-0.4-0.2-0.7-0.2c-0.4,0-0.8,0.1-1,0.3
		c-0.2,0.1-0.3,0.3-0.3,0.4c0,0.1,0.1,0.3,0.3,0.5c0.2,0.3,0.4,0.5,0.4,0.8c0,0.3-0.1,0.6-0.4,0.8c-0.2,0.2-0.5,0.3-0.9,0.3
		c-0.4,0-0.7-0.1-1-0.4c-0.3-0.2-0.4-0.5-0.4-0.9c0-0.5,0.2-0.9,0.5-1.3c0.4-0.4,0.9-0.7,1.5-1c0.7-0.2,1.3-0.3,2-0.3
		c0.9,0,1.5,0.2,2,0.5c0.5,0.4,0.8,0.8,1,1.2c0.1,0.3,0.1,0.9,0.1,1.9v3.5c0,0.4,0,0.7,0,0.8c0,0.1,0.1,0.2,0.1,0.2
		c0.1,0.1,0.1,0.1,0.2,0.1c0.2,0,0.3-0.1,0.5-0.4l0.3,0.2c-0.3,0.5-0.7,0.8-1,1c-0.3,0.2-0.7,0.3-1.2,0.3c-0.5,0-0.9-0.1-1.2-0.4
		C198.7,77.3,198.5,76.9,198.4,76.4L198.4,76.4z M198.4,75.7v-3c-0.8,0.5-1.4,0.9-1.7,1.5c-0.3,0.3-0.4,0.7-0.4,1
		c0,0.3,0.1,0.6,0.3,0.8c0.2,0.2,0.4,0.3,0.7,0.3C197.6,76.3,198,76.1,198.4,75.7L198.4,75.7z"/>
	<path class="st5" d="M206.4,64.7v11.2c0,0.6,0.1,1,0.2,1.2c0.1,0.2,0.4,0.3,0.9,0.3v0.3h-4.9v-0.3c0.4,0,0.7-0.1,0.9-0.3
		c0.1-0.1,0.2-0.5,0.2-1.2v-9.3c0-0.6-0.1-1-0.2-1.2c-0.1-0.2-0.4-0.3-0.9-0.3v-0.4H206.4L206.4,64.7z"/>
	<path class="st4" d="M210.8,64.4c0.4,0,0.8,0.1,1.1,0.4c0.3,0.3,0.4,0.6,0.4,1c0,0.4-0.1,0.8-0.4,1c-0.3,0.3-0.6,0.4-1,0.4
		c-0.4,0-0.8-0.1-1-0.4c-0.3-0.3-0.4-0.6-0.4-1c0-0.4,0.1-0.8,0.4-1C210,64.5,210.4,64.4,210.8,64.4L210.8,64.4z M212.1,68.8v7.1
		c0,0.6,0.1,1,0.2,1.2c0.1,0.2,0.4,0.3,0.9,0.3v0.3h-4.9v-0.3c0.4,0,0.7-0.1,0.9-0.3c0.1-0.1,0.2-0.5,0.2-1.2v-5.3
		c0-0.6-0.1-1-0.2-1.2c-0.1-0.2-0.4-0.3-0.9-0.3v-0.4H212.1L212.1,68.8z"/>
	<path class="st4" d="M218.8,76.4c-1.1,1-2.1,1.5-3,1.5c-0.5,0-0.9-0.2-1.3-0.5c-0.3-0.3-0.5-0.8-0.5-1.3c0-0.7,0.3-1.3,0.9-1.8
		c0.6-0.6,1.9-1.3,3.9-2.2v-0.9c0-0.7,0-1.1-0.1-1.3c-0.1-0.2-0.2-0.3-0.4-0.5c-0.2-0.1-0.4-0.2-0.7-0.2c-0.4,0-0.8,0.1-1,0.3
		c-0.2,0.1-0.3,0.3-0.3,0.4c0,0.1,0.1,0.3,0.3,0.5c0.2,0.3,0.4,0.5,0.4,0.8c0,0.3-0.1,0.6-0.4,0.8c-0.2,0.2-0.5,0.3-0.9,0.3
		c-0.4,0-0.7-0.1-1-0.4c-0.3-0.2-0.4-0.5-0.4-0.9c0-0.5,0.2-0.9,0.5-1.3c0.4-0.4,0.9-0.7,1.5-1c0.7-0.2,1.3-0.3,2-0.3
		c0.9,0,1.5,0.2,2,0.5c0.5,0.4,0.8,0.8,1,1.2c0.1,0.3,0.1,0.9,0.1,1.9v3.5c0,0.4,0,0.7,0,0.8c0,0.1,0.1,0.2,0.1,0.2
		c0.1,0.1,0.1,0.1,0.2,0.1c0.2,0,0.3-0.1,0.5-0.4l0.3,0.2c-0.3,0.5-0.7,0.8-1,1c-0.3,0.2-0.7,0.3-1.2,0.3c-0.5,0-0.9-0.1-1.2-0.4
		C219.1,77.3,218.9,76.9,218.8,76.4L218.8,76.4z M218.8,75.7v-3c-0.8,0.5-1.4,0.9-1.7,1.5c-0.3,0.3-0.4,0.7-0.4,1
		c0,0.3,0.1,0.6,0.3,0.8c0.2,0.2,0.4,0.3,0.7,0.3C218,76.3,218.4,76.1,218.8,75.7L218.8,75.7z"/>
</g>
</svg>
