<?xml version="1.0" encoding="utf-8"?>
<!-- Generator: Adobe Illustrator 24.0.1, SVG Export Plug-In . SVG Version: 6.00 Build 0)  -->
<svg version="1.1" id="Layer_1" xmlns="http://www.w3.org/2000/svg" xmlns:xlink="http://www.w3.org/1999/xlink" x="0px" y="0px"
	 viewBox="0 0 200 200" style="enable-background:new 0 0 200 200;" xml:space="preserve">
<style type="text/css">
	.st0{fill:none;stroke:#DE4326;stroke-width:3.7124;stroke-miterlimit:10;}
	.st1{fill:#DE4326;}
	.st2{fill:none;stroke:#82C88E;stroke-width:3.7124;stroke-miterlimit:10;}
	.st3{fill:#82C88E;}
	.st4{fill:none;stroke:#30AEB6;stroke-width:3.7124;stroke-miterlimit:10;}
	.st5{fill:#30AEB6;}
	.st6{fill:none;stroke:#F1AC1E;stroke-width:3.7124;stroke-miterlimit:10;}
	.st7{fill:#F1AC1E;}
</style>
<g>
	<ellipse transform="matrix(0.2994 -0.9541 0.9541 0.2994 -25.3518 165.4748)" class="st6" cx="100" cy="100" rx="75" ry="75"/>
</g>
<g>
	<path class="st7" d="M66.95,105.27h-5.53v13.12h-9.04V81.61h14.57c8.16,0,12.55,5.78,12.55,11.83
		C79.5,99.48,75.11,105.27,66.95,105.27z M66.53,89.72h-5.11v7.44h5.11c2.48,0,3.93-1.81,3.93-3.72
		C70.46,91.53,69.01,89.72,66.53,89.72z"/>
	<path class="st7" d="M100.8,118.39H84.79V81.61h15.24c7.65,0,11.73,4.29,11.73,10.64c0,4.19-2.89,6.51-4.03,7.29
		c1.5,0.93,4.55,2.84,4.55,8.01C112.27,114.57,107.36,118.39,100.8,118.39z M99.46,89.72h-5.63v5.99h5.63c2.48,0,3.26-1.55,3.26-3
		C102.71,91.27,101.94,89.72,99.46,89.72z M99.92,103.82h-6.1v6.46h6.1c2.48,0,3.31-1.71,3.31-3.26S102.4,103.82,99.92,103.82z"/>
	<path class="st7" d="M137.14,118.39l-6.51-13.69h-3.05v13.69h-9.04V81.61h14.57c8.16,0,12.55,5.78,12.55,11.83
		c0,5.01-3.1,8.16-5.99,9.61l7.96,15.34H137.14z M132.69,89.72h-5.11v7.44h5.11c2.48,0,3.93-1.81,3.93-3.72
		C136.62,91.53,135.17,89.72,132.69,89.72z"/>
</g>
</svg>
