<?xml version="1.0" encoding="utf-8"?>
<!-- Generator: Adobe Illustrator 24.0.1, SVG Export Plug-In . SVG Version: 6.00 Build 0)  -->
<svg version="1.1" id="Layer_1" xmlns="http://www.w3.org/2000/svg" xmlns:xlink="http://www.w3.org/1999/xlink" x="0px" y="0px"
	 viewBox="0 0 200 200" style="enable-background:new 0 0 200 200;" xml:space="preserve">
<style type="text/css">
	.st0{fill:none;stroke:#DE4326;stroke-width:3.7124;stroke-miterlimit:10;}
	.st1{fill:#DE4326;}
	.st2{fill:none;stroke:#82C88E;stroke-width:3.7124;stroke-miterlimit:10;}
	.st3{fill:#82C88E;}
	.st4{fill:none;stroke:#30AEB6;stroke-width:3.7124;stroke-miterlimit:10;}
	.st5{fill:#30AEB6;}
	.st6{fill:none;stroke:#F1AC1E;stroke-width:3.7124;stroke-miterlimit:10;}
	.st7{fill:#F1AC1E;}
</style>
<g>
	<ellipse transform="matrix(0.2994 -0.9541 0.9541 0.2994 -25.3518 165.4748)" class="st2" cx="100" cy="100" rx="75" ry="75"/>
	<g>
		<path class="st3" d="M109.72,114.77c-2.5,2.53-6.01,3.62-9.78,3.62H86.5V81.61h13.44c3.77,0,7.28,1.09,9.78,3.62
			c4.23,4.29,3.77,8.99,3.77,14.77C113.49,105.79,113.95,110.49,109.72,114.77z M103.61,91.74c-0.82-1.24-2.04-2.07-4.28-2.07h-3.92
			v20.66h3.92c2.24,0,3.46-0.83,4.28-2.07c0.71-1.03,0.97-2.01,0.97-8.26C104.58,93.8,104.32,92.77,103.61,91.74z"/>
	</g>
</g>
</svg>
